SplineFontDB: 3.2
FontName: Pixel-16x16-condensed
FullName: Pixel-16x16-condensed
FamilyName: Pixel-16x16
Weight: Regular
Copyright: Copyright (c) 2024, CTCL
UComments: "2024-5-22: Created with FontForge (http://fontforge.org)"
Version: 001.000
ItalicAngle: 0
UnderlinePosition: -128.953
UnderlineWidth: 48.2344
Ascent: 768
Descent: 240
InvalidEm: 0
LayerCount: 2
Layer: 0 0 "Back" 1
Layer: 1 0 "Fore" 0
XUID: [1021 591 -1735377019 3122089]
FSType: 0
OS2Version: 0
OS2_WeightWidthSlopeOnly: 0
OS2_UseTypoMetrics: 1
CreationTime: 1716403566
ModificationTime: 1716412256
PfmFamily: 17
TTFWeight: 400
TTFWidth: 3
LineGap: 93
VLineGap: 0
OS2TypoAscent: 0
OS2TypoAOffset: 1
OS2TypoDescent: 0
OS2TypoDOffset: 1
OS2TypoLinegap: 93
OS2WinAscent: 0
OS2WinAOffset: 1
OS2WinDescent: 0
OS2WinDOffset: 1
HheadAscent: 0
HheadAOffset: 1
HheadDescent: 0
HheadDOffset: 1
OS2Vendor: 'PfEd'
MarkAttachClasses: 1
DEI: 91125
LangName: 1033
Encoding: ISO8859-1
UnicodeInterp: none
NameList: AGL For New Fonts
DisplaySize: -48
AntiAlias: 1
FitToEm: 0
WinInfo: 0 38 14
BeginPrivate: 0
EndPrivate
BeginChars: 256 96

StartChar: exclam
Encoding: 33 33 0
Width: 192
VWidth: 1024
Flags: HW
LayerCount: 2
Fore
SplineSet
0 768 m 1
 48 768 l 1
 96 768 l 1
 96 720 l 1
 96 672 l 1
 96 624 l 1
 96 576 l 1
 96 528 l 1
 96 480 l 1
 96 432 l 1
 96 384 l 1
 96 336 l 1
 96 288 l 1
 96 240 l 1
 96 192 l 1
 96 144 l 1
 48 144 l 1
 0 144 l 1
 0 192 l 1
 0 240 l 1
 0 288 l 1
 0 336 l 1
 0 384 l 1
 0 432 l 1
 0 480 l 1
 0 528 l 1
 0 576 l 1
 0 624 l 1
 0 672 l 1
 0 720 l 1
 0 768 l 1
0 96 m 1
 48 96 l 1
 96 96 l 1
 96 48 l 1
 96 0 l 1
 48 0 l 1
 0 0 l 1
 0 48 l 1
 0 96 l 1
EndSplineSet
EndChar

StartChar: quotedbl
Encoding: 34 34 1
Width: 384
VWidth: 1024
Flags: HW
LayerCount: 2
Fore
SplineSet
0 768 m 1
 48 768 l 1
 96 768 l 1
 96 720 l 1
 96 672 l 1
 96 624 l 1
 96 576 l 1
 48 576 l 1
 0 576 l 1
 0 624 l 1
 0 672 l 1
 0 720 l 1
 0 768 l 1
192 768 m 1
 240 768 l 1
 288 768 l 5
 288 720 l 1
 288 672 l 1
 288 624 l 1
 288 576 l 1
 240 576 l 1
 192 576 l 1
 192 624 l 1
 192 672 l 1
 192 720 l 1
 192 768 l 1
EndSplineSet
EndChar

StartChar: numbersign
Encoding: 35 35 2
Width: 672
VWidth: 1024
Flags: HW
LayerCount: 2
Fore
SplineSet
144 768 m 1
 192 768 l 1
 240 768 l 1
 240 720 l 1
 240 672 l 1
 240 624 l 1
 240 576 l 1
 288 576 l 1
 336 576 l 1
 336 624 l 1
 336 672 l 1
 336 720 l 1
 336 768 l 1
 384 768 l 1
 432 768 l 1
 432 720 l 1
 432 672 l 1
 432 624 l 1
 432 576 l 1
 480 576 l 1
 528 576 l 1
 576 576 l 1
 576 528 l 1
 576 480 l 1
 528 480 l 1
 480 480 l 1
 432 480 l 1
 432 432 l 1
 432 384 l 1
 432 336 l 1
 432 288 l 1
 480 288 l 1
 528 288 l 1
 576 288 l 1
 576 240 l 1
 576 192 l 1
 528 192 l 1
 480 192 l 1
 432 192 l 1
 432 144 l 1
 432 96 l 1
 432 48 l 1
 432 0 l 1
 384 0 l 1
 336 0 l 1
 336 48 l 1
 336 96 l 1
 336 144 l 1
 336 192 l 1
 288 192 l 1
 240 192 l 1
 240 144 l 1
 240 96 l 1
 240 48 l 1
 240 0 l 1
 192 0 l 1
 144 0 l 1
 144 48 l 1
 144 96 l 1
 144 144 l 1
 144 192 l 1
 96 192 l 1
 48 192 l 1
 0 192 l 1
 0 240 l 1
 0 288 l 1
 48 288 l 1
 96 288 l 1
 144 288 l 1
 144 336 l 1
 144 384 l 1
 144 432 l 1
 144 480 l 1
 96 480 l 1
 48 480 l 1
 0 480 l 1
 0 528 l 1
 0 576 l 1
 48 576 l 1
 96 576 l 1
 144 576 l 1
 144 624 l 1
 144 672 l 1
 144 720 l 1
 144 768 l 1
240 480 m 1
 240 432 l 1
 240 384 l 1
 240 336 l 1
 240 288 l 1
 288 288 l 1
 336 288 l 1
 336 336 l 1
 336 384 l 1
 336 432 l 1
 336 480 l 1
 288 480 l 1
 240 480 l 1
EndSplineSet
EndChar

StartChar: dollar
Encoding: 36 36 3
Width: 672
VWidth: 1024
Flags: HW
LayerCount: 2
Fore
SplineSet
240 768 m 1
 288 768 l 1
 336 768 l 1
 336 720 l 1
 384 720 l 1
 432 720 l 1
 480 720 l 1
 480 672 l 1
 528 672 l 1
 528 624 l 1
 576 624 l 1
 576 576 l 1
 576 528 l 1
 528 528 l 1
 480 528 l 1
 480 576 l 1
 432 576 l 1
 432 624 l 1
 384 624 l 1
 336 624 l 1
 336 576 l 1
 336 528 l 1
 336 480 l 1
 336 432 l 1
 384 432 l 1
 432 432 l 1
 480 432 l 1
 480 384 l 1
 528 384 l 1
 528 336 l 1
 576 336 l 1
 576 288 l 1
 576 240 l 1
 576 192 l 1
 576 144 l 1
 528 144 l 1
 528 96 l 1
 480 96 l 1
 480 48 l 1
 432 48 l 1
 384 48 l 1
 384 0 l 1
 336 0 l 1
 288 0 l 1
 240 0 l 1
 240 48 l 1
 192 48 l 1
 144 48 l 1
 96 48 l 1
 96 96 l 1
 48 96 l 1
 48 144 l 1
 0 144 l 1
 0 192 l 1
 0 240 l 1
 48 240 l 1
 96 240 l 1
 96 192 l 1
 144 192 l 1
 144 144 l 1
 192 144 l 1
 240 144 l 1
 240 192 l 1
 240 240 l 1
 240 288 l 1
 240 336 l 1
 192 336 l 1
 144 336 l 1
 96 336 l 1
 96 384 l 1
 48 384 l 1
 48 432 l 1
 0 432 l 1
 0 480 l 1
 0 528 l 1
 0 576 l 1
 0 624 l 1
 48 624 l 1
 48 672 l 1
 96 672 l 1
 96 720 l 1
 144 720 l 1
 192 720 l 1
 240 720 l 1
 240 768 l 1
144 624 m 1
 144 576 l 1
 96 576 l 1
 96 528 l 1
 96 480 l 1
 144 480 l 1
 144 432 l 1
 192 432 l 1
 240 432 l 1
 240 480 l 1
 240 528 l 1
 240 576 l 1
 240 624 l 1
 192 624 l 1
 144 624 l 1
336 336 m 1
 336 288 l 1
 336 240 l 1
 336 192 l 1
 336 144 l 1
 384 144 l 1
 432 144 l 1
 432 192 l 1
 480 192 l 1
 480 240 l 1
 480 288 l 1
 432 288 l 1
 432 336 l 1
 384 336 l 1
 336 336 l 1
EndSplineSet
EndChar

StartChar: percent
Encoding: 37 37 4
Width: 672
VWidth: 1024
Flags: HW
LayerCount: 2
Fore
SplineSet
0 768 m 1
 48 768 l 1
 96 768 l 1
 96 720 l 1
 96 672 l 1
 96 624 l 1
 144 624 l 1
 144 576 l 1
 192 576 l 1
 192 528 l 1
 240 528 l 1
 240 480 l 1
 288 480 l 1
 288 432 l 1
 336 432 l 1
 336 384 l 1
 384 384 l 1
 384 336 l 1
 432 336 l 1
 432 288 l 1
 480 288 l 1
 480 240 l 1
 528 240 l 1
 528 192 l 1
 576 192 l 1
 576 144 l 1
 576 96 l 1
 576 48 l 1
 576 0 l 1
 528 0 l 1
 480 0 l 1
 480 48 l 1
 480 96 l 1
 480 144 l 1
 432 144 l 1
 432 192 l 1
 384 192 l 1
 384 240 l 1
 336 240 l 1
 336 288 l 1
 288 288 l 1
 288 336 l 1
 240 336 l 1
 240 384 l 1
 192 384 l 1
 192 432 l 1
 144 432 l 1
 144 480 l 1
 96 480 l 1
 96 528 l 1
 48 528 l 1
 48 576 l 1
 0 576 l 1
 0 624 l 1
 0 672 l 1
 0 720 l 1
 0 768 l 1
336 768 m 1
 384 768 l 1
 432 768 l 1
 480 768 l 1
 528 768 l 1
 576 768 l 1
 576 720 l 1
 576 672 l 1
 576 624 l 1
 576 576 l 1
 576 528 l 1
 528 528 l 1
 480 528 l 1
 432 528 l 1
 384 528 l 1
 336 528 l 1
 336 576 l 1
 336 624 l 1
 336 672 l 1
 336 720 l 1
 336 768 l 1
384 720 m 1
 384 672 l 1
 384 624 l 1
 384 576 l 1
 432 576 l 1
 480 576 l 1
 528 576 l 1
 528 624 l 1
 528 672 l 1
 528 720 l 1
 480 720 l 1
 432 720 l 1
 384 720 l 1
0 240 m 1
 48 240 l 1
 96 240 l 1
 144 240 l 1
 192 240 l 1
 240 240 l 1
 240 192 l 1
 240 144 l 1
 240 96 l 1
 240 48 l 1
 240 0 l 1
 192 0 l 1
 144 0 l 1
 96 0 l 1
 48 0 l 1
 0 0 l 1
 0 48 l 1
 0 96 l 1
 0 144 l 1
 0 192 l 1
 0 240 l 1
48 192 m 1
 48 144 l 1
 48 96 l 1
 48 48 l 1
 96 48 l 1
 144 48 l 1
 192 48 l 1
 192 96 l 1
 192 144 l 1
 192 192 l 1
 144 192 l 1
 96 192 l 1
 48 192 l 1
EndSplineSet
EndChar

StartChar: quotesingle
Encoding: 39 39 6
Width: 672
VWidth: 1024
Flags: HW
LayerCount: 2
Fore
SplineSet
240 768 m 1
 288 768 l 1
 336 768 l 1
 336 720 l 1
 336 672 l 1
 336 624 l 1
 336 576 l 1
 288 576 l 1
 240 576 l 1
 240 624 l 1
 240 672 l 1
 240 720 l 1
 240 768 l 1
EndSplineSet
EndChar

StartChar: parenleft
Encoding: 40 40 8
Width: 288
VWidth: 1024
Flags: HW
LayerCount: 2
Fore
SplineSet
96 768 m 1
 144 768 l 1
 192 768 l 1
 192 720 l 1
 192 672 l 1
 144 672 l 1
 144 624 l 1
 96 624 l 1
 96 576 l 1
 96 528 l 1
 96 480 l 1
 96 432 l 1
 96 384 l 1
 96 336 l 1
 96 288 l 1
 96 240 l 1
 96 192 l 1
 96 144 l 1
 144 144 l 1
 144 96 l 1
 192 96 l 1
 192 48 l 1
 192 0 l 1
 144 0 l 1
 96 0 l 1
 96 48 l 1
 48 48 l 1
 48 96 l 1
 0 96 l 1
 0 144 l 1
 0 192 l 1
 0 240 l 1
 0 288 l 1
 0 336 l 1
 0 384 l 1
 0 432 l 1
 0 480 l 1
 0 528 l 1
 0 576 l 1
 0 624 l 1
 0 672 l 1
 48 672 l 1
 48 720 l 1
 96 720 l 1
 96 768 l 1
EndSplineSet
EndChar

StartChar: parenright
Encoding: 41 41 9
Width: 288
VWidth: 1024
Flags: HW
LayerCount: 2
Fore
SplineSet
0 768 m 1
 48 768 l 1
 96 768 l 1
 96 720 l 1
 144 720 l 1
 144 672 l 1
 192 672 l 1
 192 624 l 1
 192 576 l 1
 192 528 l 1
 192 480 l 1
 192 432 l 1
 192 384 l 1
 192 336 l 1
 192 288 l 1
 192 240 l 1
 192 192 l 1
 192 144 l 1
 192 96 l 1
 144 96 l 1
 144 48 l 1
 96 48 l 1
 96 0 l 1
 48 0 l 1
 0 0 l 1
 0 48 l 1
 0 96 l 1
 48 96 l 1
 48 144 l 1
 96 144 l 1
 96 192 l 1
 96 240 l 1
 96 288 l 1
 96 336 l 1
 96 384 l 1
 96 432 l 1
 96 480 l 1
 96 528 l 1
 96 576 l 1
 96 624 l 1
 48 624 l 1
 48 672 l 1
 0 672 l 1
 0 720 l 1
 0 768 l 1
EndSplineSet
EndChar

StartChar: plus
Encoding: 43 43 11
Width: 672
VWidth: 1024
Flags: HW
LayerCount: 2
Fore
SplineSet
240 672 m 1
 288 672 l 1
 336 672 l 1
 336 624 l 1
 336 576 l 1
 336 528 l 1
 336 480 l 1
 336 432 l 1
 384 432 l 1
 432 432 l 1
 480 432 l 1
 528 432 l 1
 576 432 l 1
 576 384 l 1
 576 336 l 1
 528 336 l 1
 480 336 l 1
 432 336 l 1
 384 336 l 1
 336 336 l 1
 336 288 l 1
 336 240 l 1
 336 192 l 1
 336 144 l 1
 336 96 l 1
 288 96 l 1
 240 96 l 1
 240 144 l 1
 240 192 l 1
 240 240 l 1
 240 288 l 1
 240 336 l 1
 192 336 l 1
 144 336 l 1
 96 336 l 1
 48 336 l 1
 0 336 l 1
 0 384 l 1
 0 432 l 1
 48 432 l 1
 96 432 l 1
 144 432 l 1
 192 432 l 1
 240 432 l 1
 240 480 l 1
 240 528 l 1
 240 576 l 1
 240 624 l 1
 240 672 l 1
EndSplineSet
EndChar

StartChar: comma
Encoding: 44 44 12
Width: 192
VWidth: 1024
Flags: HW
LayerCount: 2
Fore
SplineSet
0 192 m 1
 48 192 l 1
 96 192 l 5
 96 144 l 1
 96 96 l 1
 96 48 l 1
 96 0 l 1
 48 0 l 1
 0 0 l 1
 0 48 l 1
 0 96 l 1
 0 144 l 1
 0 192 l 1
EndSplineSet
EndChar

StartChar: hyphen
Encoding: 45 45 13
Width: 672
VWidth: 1024
Flags: HW
LayerCount: 2
Fore
SplineSet
96 432 m 1
 144 432 l 1
 192 432 l 1
 240 432 l 1
 288 432 l 1
 336 432 l 1
 384 432 l 1
 432 432 l 1
 480 432 l 1
 480 384 l 1
 480 336 l 1
 432 336 l 1
 384 336 l 1
 336 336 l 1
 288 336 l 1
 240 336 l 1
 192 336 l 1
 144 336 l 1
 96 336 l 1
 96 384 l 1
 96 432 l 1
EndSplineSet
EndChar

StartChar: period
Encoding: 46 46 14
Width: 192
VWidth: 1024
Flags: HW
LayerCount: 2
Fore
SplineSet
0 96 m 1
 48 96 l 1
 96 96 l 1
 96 48 l 1
 96 0 l 1
 48 0 l 1
 0 0 l 1
 0 48 l 1
 0 96 l 1
EndSplineSet
EndChar

StartChar: slash
Encoding: 47 47 15
Width: 672
VWidth: 1024
Flags: HW
LayerCount: 2
Fore
SplineSet
480 768 m 1
 528 768 l 1
 576 768 l 1
 576 720 l 1
 576 672 l 1
 576 624 l 1
 576 576 l 1
 528 576 l 1
 528 528 l 1
 480 528 l 1
 480 480 l 1
 432 480 l 1
 432 432 l 1
 384 432 l 1
 384 384 l 1
 336 384 l 1
 336 336 l 1
 288 336 l 1
 288 288 l 1
 240 288 l 1
 240 240 l 1
 192 240 l 1
 192 192 l 1
 144 192 l 1
 144 144 l 1
 96 144 l 1
 96 96 l 1
 96 48 l 1
 96 0 l 1
 48 0 l 1
 0 0 l 1
 0 48 l 1
 0 96 l 1
 0 144 l 1
 0 192 l 1
 48 192 l 1
 48 240 l 1
 96 240 l 1
 96 288 l 1
 144 288 l 1
 144 336 l 1
 192 336 l 1
 192 384 l 1
 240 384 l 1
 240 432 l 1
 288 432 l 1
 288 480 l 1
 336 480 l 1
 336 528 l 1
 384 528 l 1
 384 576 l 1
 432 576 l 1
 432 624 l 1
 480 624 l 1
 480 672 l 1
 480 720 l 1
 480 768 l 1
EndSplineSet
EndChar

StartChar: zero
Encoding: 48 48 16
Width: 672
VWidth: 1024
Flags: HW
LayerCount: 2
Fore
SplineSet
96 768 m 1
 144 768 l 1
 192 768 l 1
 240 768 l 1
 288 768 l 1
 336 768 l 1
 384 768 l 1
 432 768 l 1
 480 768 l 1
 480 720 l 1
 528 720 l 1
 528 672 l 1
 576 672 l 1
 576 624 l 1
 576 576 l 1
 576 528 l 1
 576 480 l 1
 576 432 l 1
 576 384 l 1
 576 336 l 1
 576 288 l 1
 576 240 l 1
 576 192 l 1
 576 144 l 1
 576 96 l 1
 528 96 l 1
 528 48 l 1
 480 48 l 1
 480 0 l 1
 432 0 l 1
 384 0 l 1
 336 0 l 1
 288 0 l 1
 240 0 l 1
 192 0 l 1
 144 0 l 1
 96 0 l 1
 96 48 l 1
 48 48 l 1
 48 96 l 1
 0 96 l 1
 0 144 l 1
 0 192 l 1
 0 240 l 1
 0 288 l 1
 0 336 l 1
 0 384 l 1
 0 432 l 1
 0 480 l 1
 0 528 l 1
 0 576 l 1
 0 624 l 1
 0 672 l 1
 48 672 l 1
 48 720 l 1
 96 720 l 1
 96 768 l 1
144 672 m 1
 144 624 l 1
 96 624 l 1
 96 576 l 1
 96 528 l 1
 96 480 l 1
 96 432 l 1
 96 384 l 1
 96 336 l 1
 96 288 l 1
 144 288 l 1
 144 336 l 1
 192 336 l 1
 192 384 l 1
 240 384 l 1
 240 432 l 1
 288 432 l 1
 288 480 l 1
 336 480 l 1
 336 528 l 1
 384 528 l 1
 384 576 l 1
 432 576 l 1
 480 576 l 1
 480 624 l 1
 432 624 l 1
 432 672 l 1
 384 672 l 1
 336 672 l 1
 288 672 l 1
 240 672 l 1
 192 672 l 1
 144 672 l 1
432 480 m 1
 432 432 l 1
 384 432 l 1
 384 384 l 1
 336 384 l 1
 336 336 l 1
 288 336 l 1
 288 288 l 1
 240 288 l 1
 240 240 l 1
 192 240 l 1
 192 192 l 1
 144 192 l 1
 96 192 l 1
 96 144 l 1
 144 144 l 1
 144 96 l 1
 192 96 l 1
 240 96 l 1
 288 96 l 1
 336 96 l 1
 384 96 l 1
 432 96 l 1
 432 144 l 1
 480 144 l 1
 480 192 l 1
 480 240 l 1
 480 288 l 1
 480 336 l 1
 480 384 l 1
 480 432 l 1
 480 480 l 1
 432 480 l 1
EndSplineSet
EndChar

StartChar: one
Encoding: 49 49 17
Width: 384
VWidth: 1024
Flags: HW
LayerCount: 2
Fore
SplineSet
96 768 m 1
 144 768 l 1
 192 768 l 1
 192 720 l 1
 192 672 l 1
 192 624 l 1
 192 576 l 1
 192 528 l 1
 192 480 l 1
 192 432 l 1
 192 384 l 1
 192 336 l 1
 192 288 l 1
 192 240 l 1
 192 192 l 1
 192 144 l 1
 192 96 l 1
 240 96 l 1
 288 96 l 1
 288 48 l 1
 288 0 l 1
 240 0 l 1
 192 0 l 1
 144 0 l 1
 96 0 l 1
 48 0 l 1
 0 0 l 1
 0 48 l 1
 0 96 l 1
 48 96 l 1
 96 96 l 1
 96 144 l 1
 96 192 l 1
 96 240 l 1
 96 288 l 1
 96 336 l 1
 96 384 l 1
 96 432 l 1
 96 480 l 1
 96 528 l 1
 96 576 l 1
 48 576 l 1
 0 576 l 1
 0 624 l 1
 0 672 l 1
 48 672 l 1
 48 720 l 1
 96 720 l 1
 96 768 l 1
EndSplineSet
EndChar

StartChar: two
Encoding: 50 50 18
Width: 672
VWidth: 1024
Flags: HW
LayerCount: 2
Fore
SplineSet
96 768 m 1
 144 768 l 1
 192 768 l 1
 240 768 l 1
 288 768 l 1
 336 768 l 1
 384 768 l 1
 432 768 l 1
 480 768 l 1
 480 720 l 1
 528 720 l 1
 528 672 l 1
 576 672 l 1
 576 624 l 1
 576 576 l 1
 576 528 l 1
 576 480 l 1
 576 432 l 1
 576 384 l 1
 528 384 l 1
 528 336 l 1
 480 336 l 1
 480 288 l 1
 432 288 l 1
 384 288 l 1
 336 288 l 1
 288 288 l 1
 240 288 l 1
 192 288 l 1
 144 288 l 1
 144 240 l 1
 96 240 l 1
 96 192 l 1
 96 144 l 1
 96 96 l 1
 144 96 l 1
 192 96 l 1
 240 96 l 1
 288 96 l 1
 336 96 l 1
 384 96 l 1
 432 96 l 1
 480 96 l 1
 528 96 l 1
 576 96 l 1
 576 48 l 1
 576 0 l 1
 528 0 l 1
 480 0 l 1
 432 0 l 1
 384 0 l 1
 336 0 l 1
 288 0 l 1
 240 0 l 1
 192 0 l 1
 144 0 l 1
 96 0 l 1
 48 0 l 1
 0 0 l 1
 0 48 l 1
 0 96 l 1
 0 144 l 1
 0 192 l 1
 0 240 l 1
 0 288 l 1
 48 288 l 1
 48 336 l 1
 96 336 l 1
 96 384 l 1
 144 384 l 1
 192 384 l 1
 240 384 l 1
 288 384 l 1
 336 384 l 1
 384 384 l 1
 432 384 l 1
 432 432 l 1
 480 432 l 1
 480 480 l 1
 480 528 l 1
 480 576 l 1
 480 624 l 1
 432 624 l 1
 432 672 l 1
 384 672 l 1
 336 672 l 1
 288 672 l 1
 240 672 l 1
 192 672 l 1
 144 672 l 1
 144 624 l 1
 96 624 l 1
 96 576 l 1
 96 528 l 1
 48 528 l 1
 0 528 l 1
 0 576 l 1
 0 624 l 1
 0 672 l 1
 48 672 l 1
 48 720 l 1
 96 720 l 1
 96 768 l 1
EndSplineSet
EndChar

StartChar: three
Encoding: 51 51 19
Width: 672
VWidth: 1024
Flags: HW
LayerCount: 2
Fore
SplineSet
96 768 m 1
 144 768 l 1
 192 768 l 1
 240 768 l 1
 288 768 l 1
 336 768 l 1
 384 768 l 1
 432 768 l 1
 480 768 l 1
 480 720 l 1
 528 720 l 1
 528 672 l 1
 576 672 l 1
 576 624 l 1
 576 576 l 1
 576 528 l 1
 576 480 l 1
 576 432 l 1
 528 432 l 1
 528 384 l 1
 528 336 l 1
 576 336 l 1
 576 288 l 1
 576 240 l 1
 576 192 l 1
 576 144 l 1
 576 96 l 1
 528 96 l 1
 528 48 l 1
 480 48 l 1
 480 0 l 1
 432 0 l 1
 384 0 l 1
 336 0 l 1
 288 0 l 1
 240 0 l 1
 192 0 l 1
 144 0 l 1
 96 0 l 1
 96 48 l 1
 48 48 l 1
 48 96 l 1
 0 96 l 1
 0 144 l 1
 0 192 l 1
 48 192 l 1
 96 192 l 1
 96 144 l 1
 144 144 l 1
 144 96 l 1
 192 96 l 1
 240 96 l 1
 288 96 l 1
 336 96 l 1
 384 96 l 1
 432 96 l 1
 432 144 l 1
 480 144 l 1
 480 192 l 1
 480 240 l 1
 480 288 l 1
 432 288 l 1
 432 336 l 1
 384 336 l 1
 336 336 l 1
 288 336 l 1
 240 336 l 1
 240 384 l 1
 240 432 l 1
 288 432 l 1
 336 432 l 1
 384 432 l 1
 432 432 l 1
 432 480 l 1
 480 480 l 1
 480 528 l 1
 480 576 l 1
 480 624 l 1
 432 624 l 1
 432 672 l 1
 384 672 l 1
 336 672 l 1
 288 672 l 1
 240 672 l 1
 192 672 l 1
 144 672 l 1
 144 624 l 1
 96 624 l 1
 96 576 l 1
 48 576 l 1
 0 576 l 1
 0 624 l 1
 0 672 l 1
 48 672 l 1
 48 720 l 1
 96 720 l 1
 96 768 l 1
EndSplineSet
EndChar

StartChar: four
Encoding: 52 52 20
Width: 672
VWidth: 1024
Flags: HW
LayerCount: 2
Fore
SplineSet
288 768 m 1
 336 768 l 1
 384 768 l 1
 432 768 l 1
 480 768 l 1
 480 720 l 1
 480 672 l 1
 480 624 l 1
 480 576 l 1
 480 528 l 1
 480 480 l 1
 480 432 l 1
 528 432 l 1
 576 432 l 1
 576 384 l 1
 576 336 l 1
 528 336 l 1
 480 336 l 1
 480 288 l 1
 480 240 l 1
 480 192 l 1
 480 144 l 1
 480 96 l 1
 480 48 l 1
 480 0 l 1
 432 0 l 1
 384 0 l 1
 384 48 l 1
 384 96 l 1
 384 144 l 1
 384 192 l 1
 384 240 l 1
 384 288 l 1
 384 336 l 1
 336 336 l 1
 288 336 l 1
 240 336 l 1
 192 336 l 1
 144 336 l 1
 96 336 l 1
 48 336 l 1
 0 336 l 1
 0 384 l 1
 0 432 l 1
 0 480 l 1
 48 480 l 1
 48 528 l 1
 96 528 l 1
 96 576 l 1
 144 576 l 1
 144 624 l 1
 192 624 l 1
 192 672 l 1
 240 672 l 1
 240 720 l 1
 288 720 l 1
 288 768 l 1
336 672 m 1
 336 624 l 1
 288 624 l 1
 288 576 l 1
 240 576 l 1
 240 528 l 1
 192 528 l 1
 192 480 l 1
 144 480 l 1
 144 432 l 1
 192 432 l 1
 240 432 l 1
 288 432 l 1
 336 432 l 1
 384 432 l 1
 384 480 l 1
 384 528 l 1
 384 576 l 1
 384 624 l 1
 384 672 l 1
 336 672 l 1
EndSplineSet
EndChar

StartChar: five
Encoding: 53 53 21
Width: 672
VWidth: 1024
Flags: HW
LayerCount: 2
Fore
SplineSet
0 768 m 1
 48 768 l 1
 96 768 l 1
 144 768 l 1
 192 768 l 1
 240 768 l 1
 288 768 l 1
 336 768 l 1
 384 768 l 1
 432 768 l 1
 480 768 l 1
 528 768 l 1
 576 768 l 1
 576 720 l 1
 576 672 l 1
 528 672 l 1
 480 672 l 1
 432 672 l 1
 384 672 l 1
 336 672 l 1
 288 672 l 1
 240 672 l 1
 192 672 l 1
 144 672 l 1
 96 672 l 1
 96 624 l 1
 96 576 l 1
 96 528 l 1
 144 528 l 1
 192 528 l 1
 240 528 l 1
 288 528 l 1
 336 528 l 1
 384 528 l 1
 432 528 l 1
 480 528 l 1
 480 480 l 1
 528 480 l 1
 528 432 l 1
 576 432 l 1
 576 384 l 1
 576 336 l 1
 576 288 l 1
 576 240 l 1
 576 192 l 1
 576 144 l 1
 576 96 l 1
 528 96 l 1
 528 48 l 1
 480 48 l 1
 480 0 l 1
 432 0 l 1
 384 0 l 1
 336 0 l 1
 288 0 l 1
 240 0 l 1
 192 0 l 1
 144 0 l 1
 96 0 l 1
 96 48 l 1
 48 48 l 1
 48 96 l 1
 0 96 l 1
 0 144 l 1
 0 192 l 1
 48 192 l 1
 96 192 l 1
 96 144 l 1
 144 144 l 1
 144 96 l 1
 192 96 l 1
 240 96 l 1
 288 96 l 1
 336 96 l 1
 384 96 l 1
 432 96 l 1
 432 144 l 1
 480 144 l 1
 480 192 l 1
 480 240 l 1
 480 288 l 1
 480 336 l 1
 480 384 l 1
 432 384 l 1
 432 432 l 1
 384 432 l 1
 336 432 l 1
 288 432 l 1
 240 432 l 1
 192 432 l 1
 144 432 l 1
 96 432 l 1
 48 432 l 1
 0 432 l 1
 0 480 l 1
 0 528 l 1
 0 576 l 1
 0 624 l 1
 0 672 l 1
 0 720 l 1
 0 768 l 1
EndSplineSet
EndChar

StartChar: six
Encoding: 54 54 22
Width: 672
VWidth: 1024
Flags: HW
LayerCount: 2
Fore
SplineSet
96 768 m 1
 144 768 l 1
 192 768 l 1
 240 768 l 1
 288 768 l 1
 336 768 l 1
 384 768 l 1
 432 768 l 1
 480 768 l 1
 528 768 l 1
 528 720 l 1
 576 720 l 1
 576 672 l 1
 576 624 l 1
 528 624 l 1
 480 624 l 1
 480 672 l 1
 432 672 l 1
 384 672 l 1
 336 672 l 1
 288 672 l 1
 240 672 l 1
 192 672 l 1
 144 672 l 1
 144 624 l 1
 96 624 l 1
 96 576 l 1
 96 528 l 1
 96 480 l 1
 144 480 l 1
 192 480 l 1
 240 480 l 1
 288 480 l 1
 336 480 l 1
 384 480 l 1
 432 480 l 1
 480 480 l 1
 528 480 l 1
 528 432 l 1
 576 432 l 1
 576 384 l 1
 576 336 l 1
 576 288 l 1
 576 240 l 1
 576 192 l 1
 576 144 l 1
 576 96 l 1
 528 96 l 1
 528 48 l 1
 480 48 l 1
 480 0 l 1
 432 0 l 1
 384 0 l 1
 336 0 l 1
 288 0 l 1
 240 0 l 1
 192 0 l 1
 144 0 l 1
 96 0 l 1
 96 48 l 1
 48 48 l 1
 48 96 l 1
 0 96 l 1
 0 144 l 1
 0 192 l 1
 0 240 l 1
 0 288 l 1
 0 336 l 1
 0 384 l 1
 0 432 l 1
 0 480 l 1
 0 528 l 1
 0 576 l 1
 0 624 l 1
 0 672 l 1
 48 672 l 1
 48 720 l 1
 96 720 l 1
 96 768 l 1
144 384 m 1
 144 336 l 1
 96 336 l 1
 96 288 l 1
 96 240 l 1
 96 192 l 1
 96 144 l 1
 144 144 l 1
 144 96 l 1
 192 96 l 1
 240 96 l 1
 288 96 l 1
 336 96 l 1
 384 96 l 1
 432 96 l 1
 432 144 l 1
 480 144 l 1
 480 192 l 1
 480 240 l 1
 480 288 l 1
 480 336 l 1
 432 336 l 1
 432 384 l 1
 384 384 l 1
 336 384 l 1
 288 384 l 1
 240 384 l 1
 192 384 l 1
 144 384 l 1
EndSplineSet
EndChar

StartChar: seven
Encoding: 55 55 23
Width: 672
VWidth: 1024
Flags: HW
LayerCount: 2
Fore
SplineSet
0 768 m 1
 48 768 l 1
 96 768 l 1
 144 768 l 1
 192 768 l 1
 240 768 l 1
 288 768 l 1
 336 768 l 1
 384 768 l 1
 432 768 l 1
 480 768 l 1
 528 768 l 1
 576 768 l 1
 576 720 l 1
 576 672 l 1
 576 624 l 1
 576 576 l 1
 576 528 l 1
 528 528 l 1
 528 480 l 1
 480 480 l 1
 480 432 l 1
 432 432 l 1
 432 384 l 1
 384 384 l 1
 384 336 l 1
 336 336 l 1
 336 288 l 1
 336 240 l 1
 336 192 l 1
 336 144 l 1
 336 96 l 1
 336 48 l 1
 336 0 l 1
 288 0 l 1
 240 0 l 1
 240 48 l 1
 240 96 l 1
 240 144 l 1
 240 192 l 1
 240 240 l 1
 240 288 l 1
 240 336 l 1
 240 384 l 1
 288 384 l 1
 288 432 l 1
 336 432 l 1
 336 480 l 1
 384 480 l 1
 384 528 l 1
 432 528 l 1
 432 576 l 1
 480 576 l 1
 480 624 l 1
 480 672 l 1
 432 672 l 1
 384 672 l 1
 336 672 l 1
 288 672 l 1
 240 672 l 1
 192 672 l 1
 144 672 l 1
 96 672 l 1
 48 672 l 1
 0 672 l 1
 0 720 l 1
 0 768 l 1
EndSplineSet
EndChar

StartChar: eight
Encoding: 56 56 24
Width: 672
VWidth: 1024
Flags: HW
LayerCount: 2
Fore
SplineSet
96 768 m 1
 144 768 l 1
 192 768 l 1
 240 768 l 1
 288 768 l 1
 336 768 l 1
 384 768 l 1
 432 768 l 1
 480 768 l 1
 480 720 l 1
 528 720 l 1
 528 672 l 1
 576 672 l 1
 576 624 l 1
 576 576 l 1
 576 528 l 1
 576 480 l 1
 576 432 l 1
 528 432 l 1
 528 384 l 1
 528 336 l 1
 576 336 l 1
 576 288 l 1
 576 240 l 1
 576 192 l 1
 576 144 l 1
 576 96 l 1
 528 96 l 1
 528 48 l 1
 480 48 l 1
 480 0 l 1
 432 0 l 1
 384 0 l 1
 336 0 l 1
 288 0 l 1
 240 0 l 1
 192 0 l 1
 144 0 l 1
 96 0 l 1
 96 48 l 1
 48 48 l 1
 48 96 l 1
 0 96 l 1
 0 144 l 1
 0 192 l 1
 0 240 l 1
 0 288 l 1
 0 336 l 1
 48 336 l 1
 48 384 l 1
 48 432 l 1
 0 432 l 1
 0 480 l 1
 0 528 l 1
 0 576 l 1
 0 624 l 1
 0 672 l 1
 48 672 l 1
 48 720 l 1
 96 720 l 1
 96 768 l 1
144 672 m 1
 144 624 l 1
 96 624 l 1
 96 576 l 1
 96 528 l 1
 96 480 l 1
 144 480 l 1
 144 432 l 1
 192 432 l 1
 240 432 l 1
 288 432 l 1
 336 432 l 1
 384 432 l 1
 432 432 l 1
 432 480 l 1
 480 480 l 1
 480 528 l 1
 480 576 l 1
 480 624 l 1
 432 624 l 1
 432 672 l 1
 384 672 l 1
 336 672 l 1
 288 672 l 1
 240 672 l 1
 192 672 l 1
 144 672 l 1
144 336 m 1
 144 288 l 1
 96 288 l 1
 96 240 l 1
 96 192 l 1
 96 144 l 1
 144 144 l 1
 144 96 l 1
 192 96 l 1
 240 96 l 1
 288 96 l 1
 336 96 l 1
 384 96 l 1
 432 96 l 1
 432 144 l 1
 480 144 l 1
 480 192 l 1
 480 240 l 1
 480 288 l 1
 432 288 l 1
 432 336 l 1
 384 336 l 1
 336 336 l 1
 288 336 l 1
 240 336 l 1
 192 336 l 1
 144 336 l 1
EndSplineSet
EndChar

StartChar: nine
Encoding: 57 57 25
Width: 672
VWidth: 1024
Flags: HW
LayerCount: 2
Fore
SplineSet
96 768 m 1
 144 768 l 1
 192 768 l 1
 240 768 l 1
 288 768 l 1
 336 768 l 1
 384 768 l 1
 432 768 l 1
 480 768 l 1
 480 720 l 1
 528 720 l 1
 528 672 l 1
 576 672 l 1
 576 624 l 1
 576 576 l 1
 576 528 l 1
 576 480 l 1
 576 432 l 1
 576 384 l 1
 576 336 l 1
 576 288 l 1
 576 240 l 1
 576 192 l 1
 576 144 l 1
 576 96 l 1
 528 96 l 1
 528 48 l 1
 480 48 l 1
 480 0 l 1
 432 0 l 1
 384 0 l 1
 336 0 l 1
 288 0 l 1
 240 0 l 1
 192 0 l 1
 144 0 l 1
 96 0 l 1
 48 0 l 1
 48 48 l 1
 0 48 l 1
 0 96 l 1
 0 144 l 1
 48 144 l 1
 96 144 l 1
 96 96 l 1
 144 96 l 1
 192 96 l 1
 240 96 l 1
 288 96 l 1
 336 96 l 1
 384 96 l 1
 432 96 l 1
 432 144 l 1
 480 144 l 1
 480 192 l 1
 480 240 l 1
 480 288 l 1
 432 288 l 1
 432 336 l 1
 384 336 l 1
 336 336 l 1
 288 336 l 1
 240 336 l 1
 192 336 l 1
 144 336 l 1
 96 336 l 1
 96 384 l 1
 48 384 l 1
 48 432 l 1
 0 432 l 1
 0 480 l 1
 0 528 l 1
 0 576 l 1
 0 624 l 1
 0 672 l 1
 48 672 l 1
 48 720 l 1
 96 720 l 1
 96 768 l 1
144 672 m 1
 144 624 l 1
 96 624 l 1
 96 576 l 1
 96 528 l 1
 96 480 l 1
 144 480 l 1
 144 432 l 1
 192 432 l 1
 240 432 l 1
 288 432 l 1
 336 432 l 1
 384 432 l 1
 432 432 l 1
 432 480 l 1
 480 480 l 1
 480 528 l 1
 480 576 l 1
 480 624 l 1
 432 624 l 1
 432 672 l 1
 384 672 l 1
 336 672 l 1
 288 672 l 1
 240 672 l 1
 192 672 l 1
 144 672 l 1
EndSplineSet
EndChar

StartChar: colon
Encoding: 58 58 26
Width: 192
VWidth: 1024
Flags: HW
LayerCount: 2
Fore
SplineSet
0 672 m 1
 48 672 l 1
 96 672 l 1
 96 624 l 1
 96 576 l 1
 48 576 l 1
 0 576 l 1
 0 624 l 1
 0 672 l 1
0 192 m 1
 48 192 l 1
 96 192 l 1
 96 144 l 1
 96 96 l 1
 48 96 l 1
 0 96 l 1
 0 144 l 1
 0 192 l 1
EndSplineSet
EndChar

StartChar: semicolon
Encoding: 59 59 27
Width: 192
VWidth: 1024
Flags: HW
LayerCount: 2
Fore
SplineSet
0 672 m 1
 48 672 l 1
 96 672 l 1
 96 624 l 1
 96 576 l 1
 48 576 l 1
 0 576 l 1
 0 624 l 1
 0 672 l 1
0 192 m 1
 48 192 l 1
 96 192 l 1
 96 144 l 1
 96 96 l 1
 96 48 l 1
 96 0 l 1
 48 0 l 1
 0 0 l 1
 0 48 l 1
 0 96 l 1
 0 144 l 1
 0 192 l 1
EndSplineSet
EndChar

StartChar: less
Encoding: 60 60 28
Width: 672
VWidth: 1024
Flags: HW
LayerCount: 2
Fore
SplineSet
288 768 m 1
 336 768 l 1
 384 768 l 1
 384 720 l 1
 384 672 l 1
 336 672 l 1
 336 624 l 1
 288 624 l 1
 288 576 l 1
 240 576 l 1
 240 528 l 1
 192 528 l 1
 192 480 l 1
 144 480 l 1
 144 432 l 1
 96 432 l 1
 96 384 l 1
 96 336 l 1
 144 336 l 1
 144 288 l 1
 192 288 l 1
 192 240 l 1
 240 240 l 1
 240 192 l 1
 288 192 l 1
 288 144 l 1
 336 144 l 1
 336 96 l 1
 384 96 l 1
 384 48 l 1
 384 0 l 1
 336 0 l 1
 288 0 l 1
 288 48 l 1
 240 48 l 1
 240 96 l 1
 192 96 l 1
 192 144 l 1
 144 144 l 1
 144 192 l 1
 96 192 l 1
 96 240 l 1
 48 240 l 1
 48 288 l 1
 0 288 l 1
 0 336 l 1
 0 384 l 1
 0 432 l 1
 0 480 l 1
 48 480 l 1
 48 528 l 1
 96 528 l 1
 96 576 l 1
 144 576 l 1
 144 624 l 1
 192 624 l 1
 192 672 l 1
 240 672 l 1
 240 720 l 1
 288 720 l 1
 288 768 l 1
EndSplineSet
EndChar

StartChar: equal
Encoding: 61 61 29
Width: 672
VWidth: 1024
Flags: HW
LayerCount: 2
Fore
SplineSet
0 528 m 1
 48 528 l 1
 96 528 l 1
 144 528 l 1
 192 528 l 1
 240 528 l 1
 288 528 l 1
 336 528 l 1
 384 528 l 1
 432 528 l 1
 480 528 l 1
 528 528 l 1
 576 528 l 1
 576 480 l 1
 576 432 l 1
 528 432 l 1
 480 432 l 1
 432 432 l 1
 384 432 l 1
 336 432 l 1
 288 432 l 1
 240 432 l 1
 192 432 l 1
 144 432 l 1
 96 432 l 1
 48 432 l 1
 0 432 l 1
 0 480 l 1
 0 528 l 1
0 336 m 1
 48 336 l 1
 96 336 l 1
 144 336 l 1
 192 336 l 1
 240 336 l 1
 288 336 l 1
 336 336 l 1
 384 336 l 1
 432 336 l 1
 480 336 l 1
 528 336 l 1
 576 336 l 1
 576 288 l 1
 576 240 l 1
 528 240 l 1
 480 240 l 1
 432 240 l 1
 384 240 l 1
 336 240 l 1
 288 240 l 1
 240 240 l 1
 192 240 l 1
 144 240 l 1
 96 240 l 1
 48 240 l 1
 0 240 l 1
 0 288 l 1
 0 336 l 1
EndSplineSet
EndChar

StartChar: greater
Encoding: 62 62 30
Width: 672
VWidth: 1024
Flags: HW
LayerCount: 2
Fore
SplineSet
0 768 m 1
 48 768 l 1
 96 768 l 1
 96 720 l 1
 144 720 l 1
 144 672 l 1
 192 672 l 1
 192 624 l 1
 240 624 l 1
 240 576 l 1
 288 576 l 1
 288 528 l 1
 336 528 l 1
 336 480 l 1
 384 480 l 1
 384 432 l 1
 384 384 l 1
 384 336 l 1
 384 288 l 1
 336 288 l 1
 336 240 l 1
 288 240 l 1
 288 192 l 1
 240 192 l 1
 240 144 l 1
 192 144 l 1
 192 96 l 1
 144 96 l 1
 144 48 l 1
 96 48 l 1
 96 0 l 1
 48 0 l 1
 0 0 l 1
 0 48 l 1
 0 96 l 1
 48 96 l 1
 48 144 l 1
 96 144 l 1
 96 192 l 1
 144 192 l 1
 144 240 l 1
 192 240 l 1
 192 288 l 1
 240 288 l 1
 240 336 l 1
 288 336 l 1
 288 384 l 1
 288 432 l 1
 240 432 l 1
 240 480 l 1
 192 480 l 1
 192 528 l 1
 144 528 l 1
 144 576 l 1
 96 576 l 1
 96 624 l 1
 48 624 l 1
 48 672 l 1
 0 672 l 1
 0 720 l 1
 0 768 l 1
EndSplineSet
EndChar

StartChar: question
Encoding: 63 63 31
Width: 672
VWidth: 1024
Flags: HW
LayerCount: 2
Fore
SplineSet
144 768 m 1
 192 768 l 1
 240 768 l 1
 288 768 l 1
 336 768 l 1
 384 768 l 1
 432 768 l 1
 432 720 l 1
 480 720 l 1
 480 672 l 1
 528 672 l 1
 528 624 l 1
 576 624 l 1
 576 576 l 1
 576 528 l 1
 576 480 l 1
 576 432 l 1
 528 432 l 1
 528 384 l 1
 480 384 l 1
 480 336 l 1
 432 336 l 1
 432 288 l 1
 384 288 l 1
 384 240 l 1
 336 240 l 1
 336 192 l 1
 336 144 l 1
 288 144 l 1
 240 144 l 1
 240 192 l 1
 240 240 l 1
 240 288 l 1
 288 288 l 1
 288 336 l 1
 336 336 l 1
 336 384 l 1
 384 384 l 1
 384 432 l 1
 432 432 l 1
 432 480 l 1
 480 480 l 1
 480 528 l 1
 480 576 l 1
 432 576 l 1
 432 624 l 1
 384 624 l 1
 384 672 l 1
 336 672 l 1
 288 672 l 1
 240 672 l 1
 192 672 l 1
 192 624 l 1
 144 624 l 1
 144 576 l 1
 96 576 l 1
 96 528 l 1
 48 528 l 1
 0 528 l 1
 0 576 l 1
 0 624 l 1
 48 624 l 1
 48 672 l 1
 96 672 l 1
 96 720 l 1
 144 720 l 1
 144 768 l 1
240 96 m 1
 288 96 l 1
 336 96 l 1
 336 48 l 1
 336 0 l 1
 288 0 l 1
 240 0 l 1
 240 48 l 1
 240 96 l 1
EndSplineSet
EndChar

StartChar: A
Encoding: 65 65 33
Width: 672
VWidth: 1024
Flags: HW
LayerCount: 2
Fore
SplineSet
192 768 m 1
 240 768 l 1
 288 768 l 1
 336 768 l 1
 384 768 l 1
 384 720 l 1
 432 720 l 1
 432 672 l 1
 480 672 l 1
 480 624 l 1
 528 624 l 1
 528 576 l 1
 576 576 l 1
 576 528 l 1
 576 480 l 1
 576 432 l 1
 576 384 l 1
 576 336 l 1
 576 288 l 1
 576 240 l 1
 576 192 l 1
 576 144 l 1
 576 96 l 1
 576 48 l 1
 576 0 l 1
 528 0 l 1
 480 0 l 1
 480 48 l 1
 480 96 l 1
 480 144 l 1
 480 192 l 1
 480 240 l 1
 480 288 l 1
 432 288 l 1
 384 288 l 1
 336 288 l 1
 288 288 l 1
 240 288 l 1
 192 288 l 1
 144 288 l 1
 96 288 l 1
 96 240 l 1
 96 192 l 1
 96 144 l 1
 96 96 l 1
 96 48 l 1
 96 0 l 1
 48 0 l 1
 0 0 l 1
 0 48 l 1
 0 96 l 1
 0 144 l 1
 0 192 l 1
 0 240 l 1
 0 288 l 1
 0 336 l 1
 0 384 l 1
 0 432 l 1
 0 480 l 1
 0 528 l 1
 0 576 l 1
 48 576 l 1
 48 624 l 1
 96 624 l 1
 96 672 l 1
 144 672 l 1
 144 720 l 1
 192 720 l 1
 192 768 l 1
240 672 m 1
 240 624 l 1
 192 624 l 1
 192 576 l 1
 144 576 l 1
 144 528 l 1
 96 528 l 1
 96 480 l 1
 96 432 l 1
 96 384 l 1
 144 384 l 1
 192 384 l 1
 240 384 l 1
 288 384 l 1
 336 384 l 1
 384 384 l 1
 432 384 l 1
 480 384 l 1
 480 432 l 1
 480 480 l 1
 480 528 l 1
 432 528 l 1
 432 576 l 1
 384 576 l 1
 384 624 l 1
 336 624 l 1
 336 672 l 1
 288 672 l 1
 240 672 l 1
EndSplineSet
EndChar

StartChar: B
Encoding: 66 66 34
Width: 672
VWidth: 1024
Flags: HW
LayerCount: 2
Fore
SplineSet
0 768 m 1
 48 768 l 1
 96 768 l 1
 144 768 l 1
 192 768 l 1
 240 768 l 1
 288 768 l 1
 336 768 l 1
 384 768 l 1
 432 768 l 1
 480 768 l 1
 480 720 l 1
 528 720 l 1
 528 672 l 1
 576 672 l 1
 576 624 l 1
 576 576 l 1
 576 528 l 1
 576 480 l 1
 576 432 l 1
 528 432 l 1
 528 384 l 1
 528 336 l 1
 576 336 l 1
 576 288 l 1
 576 240 l 1
 576 192 l 1
 576 144 l 1
 576 96 l 1
 528 96 l 1
 528 48 l 1
 480 48 l 1
 480 0 l 1
 432 0 l 1
 384 0 l 1
 336 0 l 1
 288 0 l 1
 240 0 l 1
 192 0 l 1
 144 0 l 1
 96 0 l 1
 48 0 l 1
 0 0 l 1
 0 48 l 1
 0 96 l 1
 0 144 l 1
 0 192 l 1
 0 240 l 1
 0 288 l 1
 0 336 l 1
 0 384 l 1
 0 432 l 1
 0 480 l 1
 0 528 l 1
 0 576 l 1
 0 624 l 1
 0 672 l 1
 0 720 l 1
 0 768 l 1
96 672 m 1
 96 624 l 1
 96 576 l 1
 96 528 l 1
 96 480 l 1
 96 432 l 1
 144 432 l 1
 192 432 l 1
 240 432 l 1
 288 432 l 1
 336 432 l 1
 384 432 l 1
 432 432 l 1
 432 480 l 1
 480 480 l 1
 480 528 l 1
 480 576 l 1
 480 624 l 1
 432 624 l 1
 432 672 l 1
 384 672 l 1
 336 672 l 1
 288 672 l 1
 240 672 l 1
 192 672 l 1
 144 672 l 1
 96 672 l 1
96 336 m 1
 96 288 l 1
 96 240 l 1
 96 192 l 1
 96 144 l 1
 96 96 l 1
 144 96 l 1
 192 96 l 1
 240 96 l 1
 288 96 l 1
 336 96 l 1
 384 96 l 1
 432 96 l 1
 432 144 l 1
 480 144 l 1
 480 192 l 1
 480 240 l 1
 480 288 l 1
 432 288 l 1
 432 336 l 1
 384 336 l 1
 336 336 l 1
 288 336 l 1
 240 336 l 1
 192 336 l 1
 144 336 l 1
 96 336 l 1
EndSplineSet
EndChar

StartChar: C
Encoding: 67 67 35
Width: 672
VWidth: 1024
Flags: HW
LayerCount: 2
Fore
SplineSet
96 768 m 1
 144 768 l 1
 192 768 l 1
 240 768 l 1
 288 768 l 1
 336 768 l 1
 384 768 l 1
 432 768 l 1
 480 768 l 1
 480 720 l 1
 528 720 l 1
 528 672 l 1
 576 672 l 1
 576 624 l 1
 576 576 l 1
 528 576 l 1
 480 576 l 1
 480 624 l 1
 432 624 l 1
 432 672 l 1
 384 672 l 1
 336 672 l 1
 288 672 l 1
 240 672 l 1
 192 672 l 1
 144 672 l 1
 144 624 l 1
 96 624 l 1
 96 576 l 1
 96 528 l 1
 96 480 l 1
 96 432 l 1
 96 384 l 1
 96 336 l 1
 96 288 l 1
 96 240 l 1
 96 192 l 1
 96 144 l 1
 144 144 l 1
 144 96 l 1
 192 96 l 1
 240 96 l 1
 288 96 l 1
 336 96 l 1
 384 96 l 1
 432 96 l 1
 432 144 l 1
 480 144 l 1
 480 192 l 1
 528 192 l 1
 576 192 l 1
 576 144 l 1
 576 96 l 1
 528 96 l 1
 528 48 l 1
 480 48 l 1
 480 0 l 1
 432 0 l 1
 384 0 l 1
 336 0 l 1
 288 0 l 1
 240 0 l 1
 192 0 l 1
 144 0 l 1
 96 0 l 1
 96 48 l 1
 48 48 l 1
 48 96 l 1
 0 96 l 1
 0 144 l 1
 0 192 l 1
 0 240 l 1
 0 288 l 1
 0 336 l 1
 0 384 l 1
 0 432 l 1
 0 480 l 1
 0 528 l 1
 0 576 l 1
 0 624 l 1
 0 672 l 1
 48 672 l 1
 48 720 l 1
 96 720 l 1
 96 768 l 1
EndSplineSet
EndChar

StartChar: D
Encoding: 68 68 36
Width: 672
VWidth: 1024
Flags: HW
LayerCount: 2
Fore
SplineSet
0 768 m 1
 48 768 l 1
 96 768 l 1
 144 768 l 1
 192 768 l 1
 240 768 l 1
 288 768 l 1
 336 768 l 1
 384 768 l 1
 432 768 l 1
 480 768 l 1
 480 720 l 1
 528 720 l 1
 528 672 l 1
 576 672 l 1
 576 624 l 1
 576 576 l 1
 576 528 l 1
 576 480 l 1
 576 432 l 1
 576 384 l 1
 576 336 l 1
 576 288 l 1
 576 240 l 1
 576 192 l 1
 576 144 l 1
 576 96 l 1
 528 96 l 1
 528 48 l 1
 480 48 l 1
 480 0 l 1
 432 0 l 1
 384 0 l 1
 336 0 l 1
 288 0 l 1
 240 0 l 1
 192 0 l 1
 144 0 l 1
 96 0 l 1
 48 0 l 1
 0 0 l 1
 0 48 l 1
 0 96 l 1
 0 144 l 1
 0 192 l 1
 0 240 l 1
 0 288 l 1
 0 336 l 1
 0 384 l 1
 0 432 l 1
 0 480 l 1
 0 528 l 1
 0 576 l 1
 0 624 l 1
 0 672 l 1
 0 720 l 1
 0 768 l 1
96 672 m 1
 96 624 l 1
 96 576 l 1
 96 528 l 1
 96 480 l 1
 96 432 l 1
 96 384 l 1
 96 336 l 1
 96 288 l 1
 96 240 l 1
 96 192 l 1
 96 144 l 1
 96 96 l 1
 144 96 l 1
 192 96 l 1
 240 96 l 1
 288 96 l 1
 336 96 l 1
 384 96 l 1
 432 96 l 1
 432 144 l 1
 480 144 l 1
 480 192 l 1
 480 240 l 1
 480 288 l 1
 480 336 l 1
 480 384 l 1
 480 432 l 1
 480 480 l 1
 480 528 l 1
 480 576 l 1
 480 624 l 1
 432 624 l 1
 432 672 l 1
 384 672 l 1
 336 672 l 1
 288 672 l 1
 240 672 l 1
 192 672 l 1
 144 672 l 1
 96 672 l 1
EndSplineSet
EndChar

StartChar: E
Encoding: 69 69 37
Width: 672
VWidth: 1024
Flags: HW
LayerCount: 2
Fore
SplineSet
0 768 m 1
 48 768 l 1
 96 768 l 1
 144 768 l 1
 192 768 l 1
 240 768 l 1
 288 768 l 1
 336 768 l 1
 384 768 l 1
 432 768 l 1
 480 768 l 1
 528 768 l 1
 576 768 l 1
 576 720 l 1
 576 672 l 1
 528 672 l 1
 480 672 l 1
 432 672 l 1
 384 672 l 1
 336 672 l 1
 288 672 l 1
 240 672 l 1
 192 672 l 1
 144 672 l 1
 96 672 l 1
 96 624 l 1
 96 576 l 1
 96 528 l 1
 96 480 l 1
 96 432 l 1
 144 432 l 1
 192 432 l 1
 240 432 l 1
 288 432 l 1
 336 432 l 1
 384 432 l 1
 432 432 l 1
 432 384 l 1
 432 336 l 1
 384 336 l 1
 336 336 l 1
 288 336 l 1
 240 336 l 1
 192 336 l 1
 144 336 l 1
 96 336 l 1
 96 288 l 1
 96 240 l 1
 96 192 l 1
 96 144 l 1
 96 96 l 1
 144 96 l 1
 192 96 l 1
 240 96 l 1
 288 96 l 1
 336 96 l 1
 384 96 l 1
 432 96 l 1
 480 96 l 1
 528 96 l 1
 576 96 l 1
 576 48 l 1
 576 0 l 1
 528 0 l 1
 480 0 l 1
 432 0 l 1
 384 0 l 1
 336 0 l 1
 288 0 l 1
 240 0 l 1
 192 0 l 1
 144 0 l 1
 96 0 l 1
 48 0 l 1
 0 0 l 1
 0 48 l 1
 0 96 l 1
 0 144 l 1
 0 192 l 1
 0 240 l 1
 0 288 l 1
 0 336 l 1
 0 384 l 1
 0 432 l 1
 0 480 l 1
 0 528 l 1
 0 576 l 1
 0 624 l 1
 0 672 l 1
 0 720 l 1
 0 768 l 1
EndSplineSet
EndChar

StartChar: F
Encoding: 70 70 38
Width: 672
VWidth: 1024
Flags: HW
LayerCount: 2
Fore
SplineSet
0 768 m 1
 48 768 l 1
 96 768 l 1
 144 768 l 1
 192 768 l 1
 240 768 l 1
 288 768 l 1
 336 768 l 1
 384 768 l 1
 432 768 l 1
 480 768 l 1
 528 768 l 1
 576 768 l 1
 576 720 l 1
 576 672 l 1
 528 672 l 1
 480 672 l 1
 432 672 l 1
 384 672 l 1
 336 672 l 1
 288 672 l 1
 240 672 l 1
 192 672 l 1
 144 672 l 1
 96 672 l 1
 96 624 l 1
 96 576 l 1
 96 528 l 1
 96 480 l 1
 96 432 l 1
 144 432 l 1
 192 432 l 1
 240 432 l 1
 288 432 l 1
 336 432 l 1
 384 432 l 1
 432 432 l 1
 432 384 l 1
 432 336 l 1
 384 336 l 1
 336 336 l 1
 288 336 l 1
 240 336 l 1
 192 336 l 1
 144 336 l 1
 96 336 l 1
 96 288 l 1
 96 240 l 1
 96 192 l 1
 96 144 l 1
 96 96 l 1
 96 48 l 1
 96 0 l 1
 48 0 l 1
 0 0 l 1
 0 48 l 1
 0 96 l 1
 0 144 l 1
 0 192 l 1
 0 240 l 1
 0 288 l 1
 0 336 l 1
 0 384 l 1
 0 432 l 1
 0 480 l 1
 0 528 l 1
 0 576 l 1
 0 624 l 1
 0 672 l 1
 0 720 l 1
 0 768 l 1
EndSplineSet
EndChar

StartChar: G
Encoding: 71 71 39
Width: 672
VWidth: 1024
Flags: HW
LayerCount: 2
Fore
SplineSet
48 768 m 1
 96 768 l 1
 144 768 l 1
 192 768 l 1
 240 768 l 1
 288 768 l 1
 336 768 l 1
 384 768 l 1
 432 768 l 1
 480 768 l 1
 480 720 l 1
 528 720 l 1
 576 720 l 1
 576 672 l 1
 576 624 l 1
 528 624 l 1
 480 624 l 1
 480 672 l 1
 432 672 l 1
 384 672 l 1
 336 672 l 1
 288 672 l 1
 240 672 l 1
 192 672 l 1
 144 672 l 1
 144 624 l 1
 96 624 l 1
 96 576 l 1
 96 528 l 1
 96 480 l 1
 96 432 l 1
 96 384 l 1
 96 336 l 1
 96 288 l 1
 96 240 l 1
 96 192 l 1
 96 144 l 1
 144 144 l 1
 144 96 l 1
 192 96 l 1
 240 96 l 1
 288 96 l 1
 336 96 l 1
 384 96 l 1
 432 96 l 1
 432 144 l 1
 480 144 l 1
 480 192 l 1
 480 240 l 1
 480 288 l 1
 480 336 l 1
 432 336 l 1
 384 336 l 1
 336 336 l 1
 336 384 l 1
 336 432 l 1
 384 432 l 1
 432 432 l 1
 480 432 l 1
 528 432 l 1
 576 432 l 1
 576 384 l 1
 576 336 l 1
 576 288 l 1
 576 240 l 1
 576 192 l 1
 576 144 l 1
 576 96 l 1
 576 48 l 1
 528 48 l 1
 528 0 l 1
 480 0 l 1
 432 0 l 1
 384 0 l 1
 336 0 l 1
 288 0 l 1
 240 0 l 1
 192 0 l 1
 144 0 l 1
 96 0 l 1
 48 0 l 1
 48 48 l 1
 0 48 l 1
 0 96 l 1
 0 144 l 1
 0 192 l 1
 0 240 l 1
 0 288 l 1
 0 336 l 1
 0 384 l 1
 0 432 l 1
 0 480 l 1
 0 528 l 1
 0 576 l 1
 0 624 l 1
 0 672 l 1
 0 720 l 1
 48 720 l 1
 48 768 l 1
EndSplineSet
EndChar

StartChar: H
Encoding: 72 72 40
Width: 672
VWidth: 1024
Flags: HW
LayerCount: 2
Fore
SplineSet
0 768 m 1
 48 768 l 1
 96 768 l 1
 96 720 l 1
 96 672 l 1
 96 624 l 1
 96 576 l 1
 96 528 l 1
 96 480 l 1
 96 432 l 1
 144 432 l 1
 192 432 l 1
 240 432 l 1
 288 432 l 1
 336 432 l 1
 384 432 l 1
 432 432 l 1
 480 432 l 1
 480 480 l 1
 480 528 l 1
 480 576 l 1
 480 624 l 1
 480 672 l 1
 480 720 l 1
 480 768 l 1
 528 768 l 1
 576 768 l 1
 576 720 l 1
 576 672 l 1
 576 624 l 1
 576 576 l 1
 576 528 l 1
 576 480 l 1
 576 432 l 1
 576 384 l 1
 576 336 l 1
 576 288 l 1
 576 240 l 1
 576 192 l 1
 576 144 l 1
 576 96 l 1
 576 48 l 1
 576 0 l 1
 528 0 l 1
 480 0 l 1
 480 48 l 1
 480 96 l 1
 480 144 l 1
 480 192 l 1
 480 240 l 1
 480 288 l 1
 480 336 l 1
 432 336 l 1
 384 336 l 1
 336 336 l 1
 288 336 l 1
 240 336 l 1
 192 336 l 1
 144 336 l 1
 96 336 l 1
 96 288 l 1
 96 240 l 1
 96 192 l 1
 96 144 l 1
 96 96 l 1
 96 48 l 1
 96 0 l 1
 48 0 l 1
 0 0 l 1
 0 48 l 1
 0 96 l 1
 0 144 l 1
 0 192 l 1
 0 240 l 1
 0 288 l 1
 0 336 l 1
 0 384 l 1
 0 432 l 1
 0 480 l 1
 0 528 l 1
 0 576 l 1
 0 624 l 1
 0 672 l 1
 0 720 l 1
 0 768 l 1
EndSplineSet
EndChar

StartChar: I
Encoding: 73 73 41
Width: 672
VWidth: 1024
Flags: HW
LayerCount: 2
Fore
SplineSet
0 768 m 1
 48 768 l 1
 96 768 l 1
 144 768 l 1
 192 768 l 1
 240 768 l 1
 288 768 l 1
 336 768 l 1
 384 768 l 1
 432 768 l 1
 480 768 l 1
 528 768 l 1
 576 768 l 1
 576 720 l 1
 576 672 l 1
 528 672 l 1
 480 672 l 1
 432 672 l 1
 384 672 l 1
 336 672 l 1
 336 624 l 1
 336 576 l 1
 336 528 l 1
 336 480 l 1
 336 432 l 1
 336 384 l 1
 336 336 l 1
 336 288 l 1
 336 240 l 1
 336 192 l 1
 336 144 l 1
 336 96 l 1
 384 96 l 1
 432 96 l 1
 480 96 l 1
 528 96 l 1
 576 96 l 1
 576 48 l 1
 576 0 l 1
 528 0 l 1
 480 0 l 1
 432 0 l 1
 384 0 l 1
 336 0 l 1
 288 0 l 1
 240 0 l 1
 192 0 l 1
 144 0 l 1
 96 0 l 1
 48 0 l 1
 0 0 l 1
 0 48 l 1
 0 96 l 1
 48 96 l 1
 96 96 l 1
 144 96 l 1
 192 96 l 1
 240 96 l 1
 240 144 l 1
 240 192 l 1
 240 240 l 1
 240 288 l 1
 240 336 l 1
 240 384 l 1
 240 432 l 1
 240 480 l 1
 240 528 l 1
 240 576 l 1
 240 624 l 1
 240 672 l 1
 192 672 l 1
 144 672 l 1
 96 672 l 1
 48 672 l 1
 0 672 l 1
 0 720 l 1
 0 768 l 1
EndSplineSet
EndChar

StartChar: J
Encoding: 74 74 42
Width: 672
VWidth: 1024
Flags: HW
LayerCount: 2
Fore
SplineSet
480 768 m 1
 528 768 l 1
 576 768 l 1
 576 720 l 1
 576 672 l 1
 576 624 l 1
 576 576 l 1
 576 528 l 1
 576 480 l 1
 576 432 l 1
 576 384 l 1
 576 336 l 1
 576 288 l 1
 576 240 l 1
 576 192 l 1
 576 144 l 1
 576 96 l 1
 528 96 l 1
 528 48 l 1
 480 48 l 1
 480 0 l 1
 432 0 l 1
 384 0 l 1
 336 0 l 1
 288 0 l 1
 240 0 l 1
 192 0 l 1
 144 0 l 1
 96 0 l 1
 96 48 l 1
 48 48 l 1
 48 96 l 1
 0 96 l 1
 0 144 l 1
 0 192 l 1
 48 192 l 1
 96 192 l 1
 96 144 l 1
 144 144 l 1
 144 96 l 1
 192 96 l 1
 240 96 l 1
 288 96 l 1
 336 96 l 1
 384 96 l 1
 432 96 l 1
 432 144 l 1
 480 144 l 1
 480 192 l 1
 480 240 l 1
 480 288 l 1
 480 336 l 1
 480 384 l 1
 480 432 l 1
 480 480 l 1
 480 528 l 1
 480 576 l 1
 480 624 l 1
 480 672 l 1
 480 720 l 1
 480 768 l 1
EndSplineSet
EndChar

StartChar: K
Encoding: 75 75 43
Width: 672
VWidth: 1024
Flags: HW
LayerCount: 2
Fore
SplineSet
0 768 m 1
 48 768 l 1
 96 768 l 1
 96 720 l 1
 96 672 l 1
 96 624 l 1
 96 576 l 1
 96 528 l 1
 96 480 l 1
 96 432 l 1
 144 432 l 1
 192 432 l 1
 192 480 l 1
 240 480 l 1
 240 528 l 1
 288 528 l 1
 288 576 l 1
 336 576 l 1
 336 624 l 1
 384 624 l 1
 384 672 l 1
 432 672 l 1
 432 720 l 1
 480 720 l 1
 480 768 l 1
 528 768 l 1
 576 768 l 1
 576 720 l 1
 576 672 l 1
 528 672 l 1
 528 624 l 1
 480 624 l 1
 480 576 l 1
 432 576 l 1
 432 528 l 1
 384 528 l 1
 384 480 l 1
 336 480 l 1
 336 432 l 1
 288 432 l 1
 288 384 l 1
 288 336 l 1
 336 336 l 1
 336 288 l 1
 384 288 l 1
 384 240 l 1
 432 240 l 1
 432 192 l 1
 480 192 l 1
 480 144 l 1
 528 144 l 1
 528 96 l 1
 576 96 l 1
 576 48 l 1
 576 0 l 1
 528 0 l 1
 480 0 l 1
 480 48 l 1
 432 48 l 1
 432 96 l 1
 384 96 l 1
 384 144 l 1
 336 144 l 1
 336 192 l 1
 288 192 l 1
 288 240 l 1
 240 240 l 1
 240 288 l 1
 192 288 l 1
 192 336 l 1
 144 336 l 1
 96 336 l 1
 96 288 l 1
 96 240 l 1
 96 192 l 1
 96 144 l 1
 96 96 l 1
 96 48 l 1
 96 0 l 1
 48 0 l 1
 0 0 l 1
 0 48 l 1
 0 96 l 1
 0 144 l 1
 0 192 l 1
 0 240 l 1
 0 288 l 1
 0 336 l 1
 0 384 l 1
 0 432 l 1
 0 480 l 1
 0 528 l 1
 0 576 l 1
 0 624 l 1
 0 672 l 1
 0 720 l 1
 0 768 l 1
EndSplineSet
EndChar

StartChar: L
Encoding: 76 76 44
Width: 672
VWidth: 1024
Flags: HW
LayerCount: 2
Fore
SplineSet
0 768 m 1
 48 768 l 1
 96 768 l 1
 96 720 l 1
 96 672 l 1
 96 624 l 1
 96 576 l 1
 96 528 l 1
 96 480 l 1
 96 432 l 1
 96 384 l 1
 96 336 l 1
 96 288 l 1
 96 240 l 1
 96 192 l 1
 96 144 l 1
 96 96 l 1
 144 96 l 1
 192 96 l 1
 240 96 l 1
 288 96 l 1
 336 96 l 1
 384 96 l 1
 432 96 l 1
 480 96 l 1
 528 96 l 1
 576 96 l 1
 576 48 l 1
 576 0 l 1
 528 0 l 1
 480 0 l 1
 432 0 l 1
 384 0 l 1
 336 0 l 1
 288 0 l 1
 240 0 l 1
 192 0 l 1
 144 0 l 1
 96 0 l 1
 48 0 l 1
 0 0 l 1
 0 48 l 1
 0 96 l 1
 0 144 l 1
 0 192 l 1
 0 240 l 1
 0 288 l 1
 0 336 l 1
 0 384 l 1
 0 432 l 1
 0 480 l 1
 0 528 l 1
 0 576 l 1
 0 624 l 1
 0 672 l 1
 0 720 l 1
 0 768 l 1
EndSplineSet
EndChar

StartChar: M
Encoding: 77 77 45
Width: 672
VWidth: 1024
Flags: HW
LayerCount: 2
Fore
SplineSet
0 768 m 1
 48 768 l 1
 96 768 l 1
 96 720 l 1
 144 720 l 1
 144 672 l 1
 192 672 l 1
 192 624 l 1
 240 624 l 1
 240 576 l 1
 288 576 l 1
 336 576 l 1
 336 624 l 1
 384 624 l 1
 384 672 l 1
 432 672 l 1
 432 720 l 1
 480 720 l 1
 480 768 l 1
 528 768 l 1
 576 768 l 1
 576 720 l 1
 576 672 l 1
 576 624 l 1
 576 576 l 1
 576 528 l 1
 576 480 l 1
 576 432 l 1
 576 384 l 1
 576 336 l 1
 576 288 l 1
 576 240 l 1
 576 192 l 1
 576 144 l 1
 576 96 l 1
 576 48 l 1
 576 0 l 1
 528 0 l 1
 480 0 l 1
 480 48 l 1
 480 96 l 1
 480 144 l 1
 480 192 l 1
 480 240 l 1
 480 288 l 1
 480 336 l 1
 480 384 l 1
 480 432 l 1
 480 480 l 1
 480 528 l 1
 480 576 l 1
 432 576 l 1
 432 528 l 1
 384 528 l 1
 384 480 l 1
 336 480 l 1
 336 432 l 1
 288 432 l 1
 240 432 l 1
 240 480 l 1
 192 480 l 1
 192 528 l 1
 144 528 l 1
 144 576 l 1
 96 576 l 1
 96 528 l 1
 96 480 l 1
 96 432 l 1
 96 384 l 1
 96 336 l 1
 96 288 l 1
 96 240 l 1
 96 192 l 1
 96 144 l 1
 96 96 l 1
 96 48 l 1
 96 0 l 1
 48 0 l 1
 0 0 l 1
 0 48 l 1
 0 96 l 1
 0 144 l 1
 0 192 l 1
 0 240 l 1
 0 288 l 1
 0 336 l 1
 0 384 l 1
 0 432 l 1
 0 480 l 1
 0 528 l 1
 0 576 l 1
 0 624 l 1
 0 672 l 1
 0 720 l 1
 0 768 l 1
EndSplineSet
EndChar

StartChar: N
Encoding: 78 78 46
Width: 672
VWidth: 1024
Flags: HW
LayerCount: 2
Fore
SplineSet
0 768 m 1
 48 768 l 1
 96 768 l 1
 96 720 l 1
 144 720 l 1
 144 672 l 1
 192 672 l 1
 192 624 l 1
 240 624 l 1
 240 576 l 1
 288 576 l 1
 288 528 l 1
 336 528 l 1
 336 480 l 1
 384 480 l 1
 384 432 l 1
 432 432 l 1
 432 384 l 1
 480 384 l 1
 480 432 l 1
 480 480 l 1
 480 528 l 1
 480 576 l 1
 480 624 l 1
 480 672 l 1
 480 720 l 1
 480 768 l 1
 528 768 l 1
 576 768 l 1
 576 720 l 1
 576 672 l 1
 576 624 l 1
 576 576 l 1
 576 528 l 1
 576 480 l 1
 576 432 l 1
 576 384 l 1
 576 336 l 1
 576 288 l 1
 576 240 l 1
 576 192 l 1
 576 144 l 1
 576 96 l 1
 576 48 l 1
 576 0 l 1
 528 0 l 1
 480 0 l 1
 480 48 l 1
 480 96 l 1
 480 144 l 1
 480 192 l 1
 480 240 l 1
 432 240 l 1
 432 288 l 1
 384 288 l 1
 384 336 l 1
 336 336 l 1
 336 384 l 1
 288 384 l 1
 288 432 l 1
 240 432 l 1
 240 480 l 1
 192 480 l 1
 192 528 l 1
 144 528 l 1
 144 576 l 1
 96 576 l 1
 96 528 l 1
 96 480 l 1
 96 432 l 1
 96 384 l 1
 96 336 l 1
 96 288 l 1
 96 240 l 1
 96 192 l 1
 96 144 l 1
 96 96 l 1
 96 48 l 1
 96 0 l 1
 48 0 l 1
 0 0 l 1
 0 48 l 1
 0 96 l 1
 0 144 l 1
 0 192 l 1
 0 240 l 1
 0 288 l 1
 0 336 l 1
 0 384 l 1
 0 432 l 1
 0 480 l 1
 0 528 l 1
 0 576 l 1
 0 624 l 1
 0 672 l 1
 0 720 l 1
 0 768 l 1
EndSplineSet
EndChar

StartChar: O
Encoding: 79 79 47
Width: 672
VWidth: 1024
Flags: HW
LayerCount: 2
Fore
SplineSet
96 768 m 1
 144 768 l 1
 192 768 l 1
 240 768 l 1
 288 768 l 1
 336 768 l 1
 384 768 l 1
 432 768 l 1
 480 768 l 1
 480 720 l 1
 528 720 l 1
 528 672 l 1
 576 672 l 1
 576 624 l 1
 576 576 l 1
 576 528 l 1
 576 480 l 1
 576 432 l 1
 576 384 l 1
 576 336 l 1
 576 288 l 1
 576 240 l 1
 576 192 l 1
 576 144 l 1
 576 96 l 1
 528 96 l 1
 528 48 l 1
 480 48 l 1
 480 0 l 1
 432 0 l 1
 384 0 l 1
 336 0 l 1
 288 0 l 1
 240 0 l 1
 192 0 l 1
 144 0 l 1
 96 0 l 1
 96 48 l 1
 48 48 l 1
 48 96 l 1
 0 96 l 1
 0 144 l 1
 0 192 l 1
 0 240 l 1
 0 288 l 1
 0 336 l 1
 0 384 l 1
 0 432 l 1
 0 480 l 1
 0 528 l 1
 0 576 l 1
 0 624 l 1
 0 672 l 1
 48 672 l 1
 48 720 l 1
 96 720 l 1
 96 768 l 1
144 672 m 1
 144 624 l 1
 96 624 l 1
 96 576 l 1
 96 528 l 1
 96 480 l 1
 96 432 l 1
 96 384 l 1
 96 336 l 1
 96 288 l 1
 96 240 l 1
 96 192 l 1
 96 144 l 1
 144 144 l 1
 144 96 l 1
 192 96 l 1
 240 96 l 1
 288 96 l 1
 336 96 l 1
 384 96 l 1
 432 96 l 1
 432 144 l 1
 480 144 l 1
 480 192 l 1
 480 240 l 1
 480 288 l 1
 480 336 l 1
 480 384 l 1
 480 432 l 1
 480 480 l 1
 480 528 l 1
 480 576 l 1
 480 624 l 1
 432 624 l 1
 432 672 l 1
 384 672 l 1
 336 672 l 1
 288 672 l 1
 240 672 l 1
 192 672 l 1
 144 672 l 1
EndSplineSet
EndChar

StartChar: P
Encoding: 80 80 48
Width: 672
VWidth: 1024
Flags: HW
LayerCount: 2
Fore
SplineSet
0 768 m 1
 48 768 l 1
 96 768 l 1
 144 768 l 1
 192 768 l 1
 240 768 l 1
 288 768 l 1
 336 768 l 1
 384 768 l 1
 432 768 l 1
 480 768 l 1
 480 720 l 1
 528 720 l 1
 528 672 l 1
 576 672 l 1
 576 624 l 1
 576 576 l 1
 576 528 l 1
 576 480 l 1
 528 480 l 1
 528 432 l 1
 480 432 l 1
 480 384 l 1
 432 384 l 1
 384 384 l 1
 336 384 l 1
 288 384 l 1
 240 384 l 1
 192 384 l 1
 144 384 l 1
 96 384 l 1
 96 336 l 1
 96 288 l 1
 96 240 l 1
 96 192 l 1
 96 144 l 1
 96 96 l 1
 96 48 l 1
 96 0 l 1
 48 0 l 1
 0 0 l 1
 0 48 l 1
 0 96 l 1
 0 144 l 1
 0 192 l 1
 0 240 l 1
 0 288 l 1
 0 336 l 1
 0 384 l 1
 0 432 l 1
 0 480 l 1
 0 528 l 1
 0 576 l 1
 0 624 l 1
 0 672 l 1
 0 720 l 1
 0 768 l 1
96 672 m 1
 96 624 l 1
 96 576 l 1
 96 528 l 1
 96 480 l 1
 144 480 l 1
 192 480 l 1
 240 480 l 1
 288 480 l 1
 336 480 l 1
 384 480 l 1
 432 480 l 1
 432 528 l 1
 480 528 l 1
 480 576 l 1
 480 624 l 1
 432 624 l 1
 432 672 l 1
 384 672 l 1
 336 672 l 1
 288 672 l 1
 240 672 l 1
 192 672 l 1
 144 672 l 1
 96 672 l 1
EndSplineSet
EndChar

StartChar: Q
Encoding: 81 81 49
Width: 672
VWidth: 1024
Flags: HW
LayerCount: 2
Fore
SplineSet
96 768 m 1
 144 768 l 1
 192 768 l 1
 240 768 l 1
 288 768 l 1
 336 768 l 1
 384 768 l 1
 432 768 l 1
 480 768 l 1
 480 720 l 1
 528 720 l 1
 528 672 l 1
 576 672 l 1
 576 624 l 1
 576 576 l 1
 576 528 l 1
 576 480 l 1
 576 432 l 1
 576 384 l 1
 576 336 l 1
 576 288 l 1
 576 240 l 1
 576 192 l 1
 528 192 l 1
 528 144 l 1
 528 96 l 1
 576 96 l 1
 576 48 l 1
 576 0 l 1
 528 0 l 1
 480 0 l 1
 480 48 l 1
 432 48 l 1
 384 48 l 1
 384 0 l 1
 336 0 l 1
 288 0 l 1
 240 0 l 1
 192 0 l 1
 144 0 l 1
 96 0 l 1
 96 48 l 1
 48 48 l 1
 48 96 l 1
 0 96 l 1
 0 144 l 1
 0 192 l 1
 0 240 l 1
 0 288 l 1
 0 336 l 1
 0 384 l 1
 0 432 l 1
 0 480 l 1
 0 528 l 1
 0 576 l 1
 0 624 l 1
 0 672 l 1
 48 672 l 1
 48 720 l 1
 96 720 l 1
 96 768 l 1
144 672 m 1
 144 624 l 1
 96 624 l 1
 96 576 l 1
 96 528 l 1
 96 480 l 1
 96 432 l 1
 96 384 l 1
 96 336 l 1
 96 288 l 1
 96 240 l 1
 96 192 l 1
 96 144 l 1
 144 144 l 1
 144 96 l 1
 192 96 l 1
 240 96 l 1
 288 96 l 1
 336 96 l 1
 384 96 l 1
 384 144 l 1
 336 144 l 1
 336 192 l 1
 336 240 l 1
 384 240 l 1
 432 240 l 1
 432 192 l 1
 480 192 l 1
 480 240 l 1
 480 288 l 1
 480 336 l 1
 480 384 l 1
 480 432 l 1
 480 480 l 1
 480 528 l 1
 480 576 l 1
 480 624 l 1
 432 624 l 1
 432 672 l 1
 384 672 l 1
 336 672 l 1
 288 672 l 1
 240 672 l 1
 192 672 l 1
 144 672 l 1
EndSplineSet
EndChar

StartChar: R
Encoding: 82 82 50
Width: 672
VWidth: 1024
Flags: HW
LayerCount: 2
Fore
SplineSet
0 768 m 1
 48 768 l 1
 96 768 l 1
 144 768 l 1
 192 768 l 1
 240 768 l 1
 288 768 l 1
 336 768 l 1
 384 768 l 1
 432 768 l 1
 480 768 l 1
 480 720 l 1
 528 720 l 1
 528 672 l 1
 576 672 l 1
 576 624 l 1
 576 576 l 1
 576 528 l 1
 576 480 l 1
 528 480 l 1
 528 432 l 1
 480 432 l 1
 480 384 l 1
 432 384 l 1
 384 384 l 1
 336 384 l 1
 288 384 l 1
 288 336 l 1
 336 336 l 1
 336 288 l 1
 384 288 l 1
 384 240 l 1
 432 240 l 1
 432 192 l 1
 480 192 l 1
 480 144 l 1
 528 144 l 1
 528 96 l 1
 576 96 l 1
 576 48 l 1
 576 0 l 1
 528 0 l 1
 480 0 l 1
 480 48 l 1
 432 48 l 1
 432 96 l 1
 384 96 l 1
 384 144 l 1
 336 144 l 1
 336 192 l 1
 288 192 l 1
 288 240 l 1
 240 240 l 1
 240 288 l 1
 192 288 l 1
 192 336 l 1
 144 336 l 1
 144 384 l 1
 96 384 l 1
 96 336 l 1
 96 288 l 1
 96 240 l 1
 96 192 l 1
 96 144 l 1
 96 96 l 1
 96 48 l 1
 96 0 l 1
 48 0 l 1
 0 0 l 1
 0 48 l 1
 0 96 l 1
 0 144 l 1
 0 192 l 1
 0 240 l 1
 0 288 l 1
 0 336 l 1
 0 384 l 1
 0 432 l 1
 0 480 l 1
 0 528 l 1
 0 576 l 1
 0 624 l 1
 0 672 l 1
 0 720 l 1
 0 768 l 1
96 672 m 1
 96 624 l 1
 96 576 l 1
 96 528 l 1
 96 480 l 1
 144 480 l 1
 192 480 l 1
 240 480 l 1
 288 480 l 1
 336 480 l 1
 384 480 l 1
 432 480 l 1
 432 528 l 1
 480 528 l 1
 480 576 l 1
 480 624 l 1
 432 624 l 1
 432 672 l 1
 384 672 l 1
 336 672 l 1
 288 672 l 1
 240 672 l 1
 192 672 l 1
 144 672 l 1
 96 672 l 1
EndSplineSet
EndChar

StartChar: S
Encoding: 83 83 51
Width: 672
VWidth: 1024
Flags: HW
LayerCount: 2
Fore
SplineSet
96 768 m 1
 144 768 l 1
 192 768 l 1
 240 768 l 1
 288 768 l 1
 336 768 l 1
 384 768 l 1
 432 768 l 1
 480 768 l 1
 480 720 l 1
 528 720 l 1
 528 672 l 1
 576 672 l 1
 576 624 l 1
 576 576 l 1
 528 576 l 1
 480 576 l 1
 480 624 l 1
 432 624 l 1
 432 672 l 1
 384 672 l 1
 336 672 l 1
 288 672 l 1
 240 672 l 1
 192 672 l 1
 144 672 l 1
 144 624 l 1
 96 624 l 1
 96 576 l 1
 96 528 l 1
 96 480 l 1
 144 480 l 1
 144 432 l 1
 192 432 l 1
 240 432 l 1
 288 432 l 1
 336 432 l 1
 384 432 l 1
 432 432 l 1
 480 432 l 1
 480 384 l 1
 528 384 l 1
 528 336 l 1
 576 336 l 1
 576 288 l 1
 576 240 l 1
 576 192 l 1
 576 144 l 1
 576 96 l 1
 528 96 l 1
 528 48 l 1
 480 48 l 1
 480 0 l 1
 432 0 l 1
 384 0 l 1
 336 0 l 1
 288 0 l 1
 240 0 l 1
 192 0 l 1
 144 0 l 1
 96 0 l 1
 96 48 l 1
 48 48 l 1
 48 96 l 1
 0 96 l 1
 0 144 l 1
 0 192 l 1
 48 192 l 1
 96 192 l 1
 96 144 l 1
 144 144 l 1
 144 96 l 1
 192 96 l 1
 240 96 l 1
 288 96 l 1
 336 96 l 1
 384 96 l 1
 432 96 l 1
 432 144 l 1
 480 144 l 1
 480 192 l 1
 480 240 l 1
 480 288 l 1
 432 288 l 1
 432 336 l 1
 384 336 l 1
 336 336 l 1
 288 336 l 1
 240 336 l 1
 192 336 l 1
 144 336 l 1
 96 336 l 1
 96 384 l 1
 48 384 l 1
 48 432 l 1
 0 432 l 1
 0 480 l 1
 0 528 l 1
 0 576 l 1
 0 624 l 1
 0 672 l 1
 48 672 l 1
 48 720 l 1
 96 720 l 1
 96 768 l 1
EndSplineSet
EndChar

StartChar: T
Encoding: 84 84 52
Width: 672
VWidth: 1024
Flags: HW
LayerCount: 2
Fore
SplineSet
0 768 m 1
 48 768 l 1
 96 768 l 1
 144 768 l 1
 192 768 l 1
 240 768 l 1
 288 768 l 1
 336 768 l 1
 384 768 l 1
 432 768 l 1
 480 768 l 1
 528 768 l 1
 576 768 l 1
 576 720 l 1
 576 672 l 1
 528 672 l 1
 480 672 l 1
 432 672 l 1
 384 672 l 1
 336 672 l 1
 336 624 l 1
 336 576 l 1
 336 528 l 1
 336 480 l 1
 336 432 l 1
 336 384 l 1
 336 336 l 1
 336 288 l 1
 336 240 l 1
 336 192 l 1
 336 144 l 1
 336 96 l 1
 336 48 l 1
 336 0 l 1
 288 0 l 1
 240 0 l 1
 240 48 l 1
 240 96 l 1
 240 144 l 1
 240 192 l 1
 240 240 l 1
 240 288 l 1
 240 336 l 1
 240 384 l 1
 240 432 l 1
 240 480 l 1
 240 528 l 1
 240 576 l 1
 240 624 l 1
 240 672 l 1
 192 672 l 1
 144 672 l 1
 96 672 l 1
 48 672 l 1
 0 672 l 1
 0 720 l 1
 0 768 l 1
EndSplineSet
EndChar

StartChar: U
Encoding: 85 85 53
Width: 672
VWidth: 1024
Flags: HW
LayerCount: 2
Fore
SplineSet
0 768 m 1
 48 768 l 1
 96 768 l 1
 96 720 l 1
 96 672 l 1
 96 624 l 1
 96 576 l 1
 96 528 l 1
 96 480 l 1
 96 432 l 1
 96 384 l 1
 96 336 l 1
 96 288 l 1
 96 240 l 1
 96 192 l 1
 96 144 l 1
 144 144 l 1
 144 96 l 1
 192 96 l 1
 240 96 l 1
 288 96 l 1
 336 96 l 1
 384 96 l 1
 432 96 l 1
 432 144 l 1
 480 144 l 1
 480 192 l 1
 480 240 l 1
 480 288 l 1
 480 336 l 1
 480 384 l 1
 480 432 l 1
 480 480 l 1
 480 528 l 1
 480 576 l 1
 480 624 l 1
 480 672 l 1
 480 720 l 1
 480 768 l 1
 528 768 l 1
 576 768 l 1
 576 720 l 1
 576 672 l 1
 576 624 l 1
 576 576 l 1
 576 528 l 1
 576 480 l 1
 576 432 l 1
 576 384 l 1
 576 336 l 1
 576 288 l 1
 576 240 l 1
 576 192 l 1
 576 144 l 1
 576 96 l 1
 528 96 l 1
 528 48 l 1
 480 48 l 1
 480 0 l 1
 432 0 l 1
 384 0 l 1
 336 0 l 1
 288 0 l 1
 240 0 l 1
 192 0 l 1
 144 0 l 1
 96 0 l 1
 96 48 l 1
 48 48 l 1
 48 96 l 1
 0 96 l 1
 0 144 l 1
 0 192 l 1
 0 240 l 1
 0 288 l 1
 0 336 l 1
 0 384 l 1
 0 432 l 1
 0 480 l 1
 0 528 l 1
 0 576 l 1
 0 624 l 1
 0 672 l 1
 0 720 l 1
 0 768 l 1
EndSplineSet
EndChar

StartChar: V
Encoding: 86 86 54
Width: 672
VWidth: 1024
Flags: HW
LayerCount: 2
Fore
SplineSet
0 768 m 1
 48 768 l 1
 96 768 l 1
 96 720 l 1
 96 672 l 1
 96 624 l 1
 96 576 l 1
 96 528 l 1
 96 480 l 1
 96 432 l 1
 96 384 l 1
 96 336 l 1
 96 288 l 1
 144 288 l 1
 144 240 l 1
 192 240 l 1
 192 192 l 1
 240 192 l 1
 240 144 l 1
 288 144 l 1
 336 144 l 1
 336 192 l 1
 384 192 l 1
 384 240 l 1
 432 240 l 1
 432 288 l 1
 480 288 l 1
 480 336 l 1
 480 384 l 1
 480 432 l 1
 480 480 l 1
 480 528 l 1
 480 576 l 1
 480 624 l 1
 480 672 l 1
 480 720 l 1
 480 768 l 1
 528 768 l 1
 576 768 l 1
 576 720 l 1
 576 672 l 1
 576 624 l 1
 576 576 l 1
 576 528 l 1
 576 480 l 1
 576 432 l 1
 576 384 l 1
 576 336 l 1
 576 288 l 1
 576 240 l 1
 528 240 l 1
 528 192 l 1
 480 192 l 1
 480 144 l 1
 432 144 l 1
 432 96 l 1
 384 96 l 1
 384 48 l 1
 336 48 l 1
 336 0 l 1
 288 0 l 1
 240 0 l 1
 240 48 l 1
 192 48 l 1
 192 96 l 1
 144 96 l 1
 144 144 l 1
 96 144 l 1
 96 192 l 1
 48 192 l 1
 48 240 l 1
 0 240 l 1
 0 288 l 1
 0 336 l 1
 0 384 l 1
 0 432 l 1
 0 480 l 1
 0 528 l 1
 0 576 l 1
 0 624 l 1
 0 672 l 1
 0 720 l 1
 0 768 l 1
EndSplineSet
EndChar

StartChar: W
Encoding: 87 87 55
Width: 672
VWidth: 1024
Flags: HW
LayerCount: 2
Fore
SplineSet
0 768 m 1
 48 768 l 1
 96 768 l 1
 96 720 l 1
 96 672 l 1
 96 624 l 1
 96 576 l 1
 96 528 l 1
 96 480 l 1
 96 432 l 1
 96 384 l 1
 96 336 l 1
 96 288 l 1
 96 240 l 1
 96 192 l 1
 144 192 l 1
 144 240 l 1
 192 240 l 1
 192 288 l 1
 240 288 l 1
 240 336 l 1
 288 336 l 1
 336 336 l 1
 336 288 l 1
 384 288 l 1
 384 240 l 1
 432 240 l 1
 432 192 l 1
 480 192 l 1
 480 240 l 1
 480 288 l 1
 480 336 l 1
 480 384 l 1
 480 432 l 1
 480 480 l 1
 480 528 l 1
 480 576 l 1
 480 624 l 1
 480 672 l 1
 480 720 l 1
 480 768 l 1
 528 768 l 1
 576 768 l 1
 576 720 l 1
 576 672 l 1
 576 624 l 1
 576 576 l 1
 576 528 l 1
 576 480 l 1
 576 432 l 1
 576 384 l 1
 576 336 l 1
 576 288 l 1
 576 240 l 1
 576 192 l 1
 576 144 l 1
 576 96 l 1
 576 48 l 1
 576 0 l 1
 528 0 l 1
 480 0 l 1
 480 48 l 1
 432 48 l 1
 432 96 l 1
 384 96 l 1
 384 144 l 1
 336 144 l 1
 336 192 l 1
 288 192 l 1
 240 192 l 1
 240 144 l 1
 192 144 l 1
 192 96 l 1
 144 96 l 1
 144 48 l 1
 96 48 l 1
 96 0 l 1
 48 0 l 1
 0 0 l 1
 0 48 l 1
 0 96 l 1
 0 144 l 1
 0 192 l 1
 0 240 l 1
 0 288 l 1
 0 336 l 1
 0 384 l 1
 0 432 l 1
 0 480 l 1
 0 528 l 1
 0 576 l 1
 0 624 l 1
 0 672 l 1
 0 720 l 1
 0 768 l 1
EndSplineSet
EndChar

StartChar: X
Encoding: 88 88 56
Width: 672
VWidth: 1024
Flags: HW
LayerCount: 2
Fore
SplineSet
0 768 m 1
 48 768 l 1
 96 768 l 1
 96 720 l 1
 96 672 l 1
 96 624 l 1
 144 624 l 1
 144 576 l 1
 192 576 l 1
 192 528 l 1
 240 528 l 1
 240 480 l 1
 288 480 l 1
 336 480 l 1
 336 528 l 1
 384 528 l 1
 384 576 l 1
 432 576 l 1
 432 624 l 1
 480 624 l 1
 480 672 l 1
 480 720 l 1
 480 768 l 1
 528 768 l 1
 576 768 l 1
 576 720 l 1
 576 672 l 1
 576 624 l 1
 576 576 l 1
 528 576 l 1
 528 528 l 1
 480 528 l 1
 480 480 l 1
 432 480 l 1
 432 432 l 1
 384 432 l 1
 384 384 l 1
 384 336 l 1
 432 336 l 1
 432 288 l 1
 480 288 l 1
 480 240 l 1
 528 240 l 1
 528 192 l 1
 576 192 l 1
 576 144 l 1
 576 96 l 1
 576 48 l 1
 576 0 l 1
 528 0 l 1
 480 0 l 1
 480 48 l 1
 480 96 l 1
 480 144 l 1
 432 144 l 1
 432 192 l 1
 384 192 l 1
 384 240 l 1
 336 240 l 1
 336 288 l 1
 288 288 l 1
 240 288 l 1
 240 240 l 1
 192 240 l 1
 192 192 l 1
 144 192 l 1
 144 144 l 1
 96 144 l 1
 96 96 l 1
 96 48 l 1
 96 0 l 1
 48 0 l 1
 0 0 l 1
 0 48 l 1
 0 96 l 1
 0 144 l 1
 0 192 l 1
 48 192 l 1
 48 240 l 1
 96 240 l 1
 96 288 l 1
 144 288 l 1
 144 336 l 1
 192 336 l 1
 192 384 l 1
 192 432 l 1
 144 432 l 1
 144 480 l 1
 96 480 l 1
 96 528 l 1
 48 528 l 1
 48 576 l 1
 0 576 l 1
 0 624 l 1
 0 672 l 1
 0 720 l 1
 0 768 l 1
EndSplineSet
EndChar

StartChar: Y
Encoding: 89 89 57
Width: 672
VWidth: 1024
Flags: HW
LayerCount: 2
Fore
SplineSet
0 768 m 1
 48 768 l 1
 96 768 l 1
 96 720 l 1
 96 672 l 1
 96 624 l 1
 96 576 l 1
 96 528 l 1
 144 528 l 1
 144 480 l 1
 192 480 l 1
 192 432 l 1
 240 432 l 1
 240 384 l 1
 288 384 l 1
 336 384 l 1
 336 432 l 1
 384 432 l 1
 384 480 l 1
 432 480 l 1
 432 528 l 1
 480 528 l 1
 480 576 l 1
 480 624 l 1
 480 672 l 1
 480 720 l 1
 480 768 l 1
 528 768 l 1
 576 768 l 1
 576 720 l 1
 576 672 l 1
 576 624 l 1
 576 576 l 1
 576 528 l 1
 576 480 l 1
 528 480 l 1
 528 432 l 1
 480 432 l 1
 480 384 l 1
 432 384 l 1
 432 336 l 1
 384 336 l 1
 384 288 l 1
 336 288 l 1
 336 240 l 1
 336 192 l 1
 336 144 l 1
 336 96 l 1
 336 48 l 1
 336 0 l 1
 288 0 l 1
 240 0 l 1
 240 48 l 1
 240 96 l 1
 240 144 l 1
 240 192 l 1
 240 240 l 1
 240 288 l 1
 192 288 l 1
 192 336 l 1
 144 336 l 1
 144 384 l 1
 96 384 l 1
 96 432 l 1
 48 432 l 1
 48 480 l 1
 0 480 l 1
 0 528 l 1
 0 576 l 1
 0 624 l 1
 0 672 l 1
 0 720 l 1
 0 768 l 1
EndSplineSet
EndChar

StartChar: Z
Encoding: 90 90 58
Width: 672
VWidth: 1024
Flags: HW
LayerCount: 2
Fore
SplineSet
0 768 m 1
 48 768 l 1
 96 768 l 1
 144 768 l 1
 192 768 l 1
 240 768 l 1
 288 768 l 1
 336 768 l 1
 384 768 l 1
 432 768 l 1
 480 768 l 1
 528 768 l 1
 576 768 l 1
 576 720 l 1
 576 672 l 1
 576 624 l 1
 576 576 l 1
 528 576 l 1
 528 528 l 1
 480 528 l 1
 480 480 l 1
 432 480 l 1
 432 432 l 1
 384 432 l 1
 384 384 l 1
 336 384 l 1
 336 336 l 1
 288 336 l 1
 288 288 l 1
 240 288 l 1
 240 240 l 1
 192 240 l 1
 192 192 l 1
 144 192 l 1
 144 144 l 1
 96 144 l 1
 96 96 l 1
 144 96 l 1
 192 96 l 1
 240 96 l 1
 288 96 l 1
 336 96 l 1
 384 96 l 1
 432 96 l 1
 480 96 l 1
 528 96 l 1
 576 96 l 1
 576 48 l 1
 576 0 l 1
 528 0 l 1
 480 0 l 1
 432 0 l 1
 384 0 l 1
 336 0 l 1
 288 0 l 1
 240 0 l 1
 192 0 l 1
 144 0 l 1
 96 0 l 1
 48 0 l 1
 0 0 l 1
 0 48 l 1
 0 96 l 1
 0 144 l 1
 0 192 l 1
 48 192 l 1
 48 240 l 1
 96 240 l 1
 96 288 l 1
 144 288 l 1
 144 336 l 1
 192 336 l 1
 192 384 l 1
 240 384 l 1
 240 432 l 1
 288 432 l 1
 288 480 l 1
 336 480 l 1
 336 528 l 1
 384 528 l 1
 384 576 l 1
 432 576 l 1
 432 624 l 1
 480 624 l 1
 480 672 l 1
 432 672 l 1
 384 672 l 1
 336 672 l 1
 288 672 l 1
 240 672 l 1
 192 672 l 1
 144 672 l 1
 96 672 l 1
 48 672 l 1
 0 672 l 1
 0 720 l 1
 0 768 l 1
EndSplineSet
EndChar

StartChar: bracketleft
Encoding: 91 91 59
Width: 672
VWidth: 1024
Flags: HW
LayerCount: 2
Fore
SplineSet
0 768 m 1
 48 768 l 1
 96 768 l 1
 144 768 l 1
 192 768 l 1
 192 720 l 1
 192 672 l 1
 144 672 l 1
 96 672 l 1
 96 624 l 1
 96 576 l 1
 96 528 l 1
 96 480 l 1
 96 432 l 1
 96 384 l 1
 96 336 l 1
 96 288 l 1
 96 240 l 1
 96 192 l 1
 96 144 l 1
 96 96 l 1
 144 96 l 1
 192 96 l 1
 192 48 l 1
 192 0 l 1
 144 0 l 1
 96 0 l 1
 48 0 l 1
 0 0 l 1
 0 48 l 1
 0 96 l 1
 0 144 l 1
 0 192 l 1
 0 240 l 1
 0 288 l 1
 0 336 l 1
 0 384 l 1
 0 432 l 1
 0 480 l 1
 0 528 l 1
 0 576 l 1
 0 624 l 1
 0 672 l 1
 0 720 l 1
 0 768 l 1
EndSplineSet
EndChar

StartChar: backslash
Encoding: 92 92 60
Width: 672
VWidth: 1024
Flags: HW
LayerCount: 2
Fore
SplineSet
0 768 m 1
 48 768 l 1
 96 768 l 1
 96 720 l 1
 96 672 l 1
 96 624 l 1
 144 624 l 1
 144 576 l 1
 192 576 l 1
 192 528 l 1
 240 528 l 1
 240 480 l 1
 288 480 l 1
 288 432 l 1
 336 432 l 1
 336 384 l 1
 384 384 l 1
 384 336 l 1
 432 336 l 1
 432 288 l 1
 480 288 l 1
 480 240 l 1
 528 240 l 1
 528 192 l 1
 576 192 l 1
 576 144 l 1
 576 96 l 1
 576 48 l 1
 576 0 l 1
 528 0 l 1
 480 0 l 1
 480 48 l 1
 480 96 l 1
 480 144 l 1
 432 144 l 1
 432 192 l 1
 384 192 l 1
 384 240 l 1
 336 240 l 1
 336 288 l 1
 288 288 l 1
 288 336 l 1
 240 336 l 1
 240 384 l 1
 192 384 l 1
 192 432 l 1
 144 432 l 1
 144 480 l 1
 96 480 l 1
 96 528 l 1
 48 528 l 1
 48 576 l 1
 0 576 l 1
 0 624 l 1
 0 672 l 1
 0 720 l 1
 0 768 l 1
EndSplineSet
EndChar

StartChar: bracketright
Encoding: 93 93 61
Width: 672
VWidth: 1024
Flags: HW
LayerCount: 2
Fore
SplineSet
0 768 m 1
 48 768 l 1
 96 768 l 1
 144 768 l 1
 192 768 l 1
 192 720 l 1
 192 672 l 1
 192 624 l 1
 192 576 l 1
 192 528 l 1
 192 480 l 1
 192 432 l 1
 192 384 l 1
 192 336 l 1
 192 288 l 1
 192 240 l 1
 192 192 l 1
 192 144 l 1
 192 96 l 1
 192 48 l 1
 192 0 l 1
 144 0 l 1
 96 0 l 1
 48 0 l 1
 0 0 l 1
 0 48 l 1
 0 96 l 1
 48 96 l 1
 96 96 l 1
 96 144 l 1
 96 192 l 1
 96 240 l 1
 96 288 l 1
 96 336 l 1
 96 384 l 1
 96 432 l 1
 96 480 l 1
 96 528 l 1
 96 576 l 1
 96 624 l 1
 96 672 l 1
 48 672 l 1
 0 672 l 1
 0 720 l 1
 0 768 l 1
EndSplineSet
EndChar

StartChar: asciicircum
Encoding: 94 94 62
Width: 480
VWidth: 1024
Flags: HW
LayerCount: 2
Fore
SplineSet
144 768 m 1
 192 768 l 1
 240 768 l 1
 240 720 l 1
 288 720 l 1
 288 672 l 1
 336 672 l 1
 336 624 l 1
 384 624 l 1
 384 576 l 1
 384 528 l 1
 336 528 l 1
 288 528 l 1
 288 576 l 1
 240 576 l 1
 240 624 l 1
 192 624 l 1
 144 624 l 1
 144 576 l 1
 96 576 l 1
 96 528 l 1
 48 528 l 1
 0 528 l 1
 0 576 l 1
 0 624 l 1
 48 624 l 1
 48 672 l 1
 96 672 l 1
 96 720 l 1
 144 720 l 1
 144 768 l 1
EndSplineSet
EndChar

StartChar: underscore
Encoding: 95 95 63
Width: 672
VWidth: 1024
Flags: HW
LayerCount: 2
Fore
SplineSet
0 96 m 1
 48 96 l 1
 96 96 l 1
 144 96 l 1
 192 96 l 1
 240 96 l 1
 288 96 l 1
 336 96 l 1
 384 96 l 1
 432 96 l 1
 480 96 l 1
 528 96 l 1
 576 96 l 1
 576 48 l 1
 576 0 l 1
 528 0 l 1
 480 0 l 1
 432 0 l 1
 384 0 l 1
 336 0 l 1
 288 0 l 1
 240 0 l 1
 192 0 l 1
 144 0 l 1
 96 0 l 1
 48 0 l 1
 0 0 l 1
 0 48 l 1
 0 96 l 1
EndSplineSet
EndChar

StartChar: grave
Encoding: 96 96 64
Width: 288
VWidth: 1024
Flags: HW
LayerCount: 2
Fore
SplineSet
0 768 m 1
 48 768 l 1
 96 768 l 1
 96 720 l 1
 144 720 l 1
 144 672 l 1
 192 672 l 1
 192 624 l 1
 192 576 l 1
 144 576 l 1
 96 576 l 1
 96 624 l 1
 48 624 l 1
 48 672 l 1
 0 672 l 1
 0 720 l 1
 0 768 l 1
EndSplineSet
EndChar

StartChar: a
Encoding: 97 97 65
Width: 672
VWidth: 1024
InSpiro: 1
Flags: HW
LayerCount: 2
Fore
SplineSet
48 528 m 1
 96 528 l 1
 144 528 l 1
 192 528 l 1
 240 528 l 1
 288 528 l 1
 336 528 l 1
 384 528 l 1
 432 528 l 1
 480 528 l 1
 528 528 l 1
 528 480 l 1
 576 480 l 1
 576 432 l 1
 576 384 l 1
 576 336 l 1
 576 288 l 1
 576 240 l 1
 576 192 l 1
 576 144 l 1
 576 96 l 1
 576 48 l 1
 528 48 l 1
 528 0 l 1
 480 0 l 1
 432 0 l 1
 384 0 l 1
 336 0 l 1
 288 0 l 1
 240 0 l 1
 192 0 l 1
 144 0 l 1
 96 0 l 1
 48 0 l 1
 48 48 l 1
 0 48 l 1
 0 96 l 1
 0 144 l 1
 0 192 l 1
 0 240 l 1
 0 288 l 1
 48 288 l 1
 48 336 l 1
 96 336 l 1
 144 336 l 1
 192 336 l 1
 240 336 l 1
 288 336 l 1
 336 336 l 1
 384 336 l 1
 432 336 l 1
 480 336 l 1
 480 384 l 1
 480 432 l 1
 432 432 l 1
 384 432 l 1
 336 432 l 1
 288 432 l 1
 240 432 l 1
 192 432 l 1
 144 432 l 1
 96 432 l 1
 96 384 l 1
 48 384 l 1
 0 384 l 1
 0 432 l 1
 0 480 l 1
 48 480 l 1
 48 528 l 1
  Spiro
    48 528 v
    96 528 v
    144 528 v
    192 528 v
    240 528 v
    288 528 v
    336 528 v
    384 528 v
    432 528 v
    480 528 v
    528 528 v
    528 480 v
    576 480 v
    576 432 v
    576 384 v
    576 336 v
    576 288 v
    576 240 v
    576 192 v
    576 144 v
    576 96 v
    576 48 v
    528 48 v
    528 0 v
    480 0 v
    432 0 v
    384 0 v
    336 0 v
    288 0 v
    240 0 v
    192 0 v
    144 0 v
    96 0 v
    48 0 v
    48 48 v
    0 48 v
    0 96 v
    0 144 v
    0 192 v
    0 240 v
    0 288 v
    48 288 v
    48 336 v
    96 336 v
    144 336 v
    192 336 v
    240 336 v
    288 336 v
    336 336 v
    384 336 v
    432 336 v
    480 336 v
    480 384 v
    480 432 v
    432 432 v
    384 432 v
    336 432 v
    288 432 v
    240 432 v
    192 432 v
    144 432 v
    96 432 v
    96 384 v
    48 384 v
    0 384 v
    0 432 v
    0 480 v
    48 480 v
    0 0 z
  EndSpiro
96 240 m 1
 96 192 l 1
 96 144 l 1
 96 96 l 1
 144 96 l 1
 192 96 l 1
 240 96 l 1
 288 96 l 1
 336 96 l 1
 384 96 l 1
 432 96 l 1
 480 96 l 1
 480 144 l 1
 480 192 l 1
 480 240 l 1
 432 240 l 1
 384 240 l 1
 336 240 l 1
 288 240 l 1
 240 240 l 1
 192 240 l 1
 144 240 l 1
 96 240 l 1
  Spiro
    96 240 v
    96 192 v
    96 144 v
    96 96 v
    144 96 v
    192 96 v
    240 96 v
    288 96 v
    336 96 v
    384 96 v
    432 96 v
    480 96 v
    480 144 v
    480 192 v
    480 240 v
    432 240 v
    384 240 v
    336 240 v
    288 240 v
    240 240 v
    192 240 v
    144 240 v
    0 0 z
  EndSpiro
EndSplineSet
EndChar

StartChar: b
Encoding: 98 98 66
Width: 672
VWidth: 1024
Flags: HW
LayerCount: 2
Fore
SplineSet
0 768 m 1
 48 768 l 1
 96 768 l 1
 96 720 l 1
 96 672 l 1
 96 624 l 1
 96 576 l 1
 96 528 l 1
 144 528 l 1
 192 528 l 1
 240 528 l 1
 288 528 l 1
 336 528 l 1
 384 528 l 1
 432 528 l 1
 480 528 l 1
 480 480 l 1
 528 480 l 1
 528 432 l 1
 576 432 l 1
 576 384 l 1
 576 336 l 1
 576 288 l 1
 576 240 l 1
 576 192 l 1
 576 144 l 1
 576 96 l 1
 528 96 l 1
 528 48 l 1
 480 48 l 1
 480 0 l 1
 432 0 l 1
 384 0 l 1
 336 0 l 1
 288 0 l 1
 240 0 l 1
 192 0 l 1
 144 0 l 1
 96 0 l 1
 96 48 l 1
 48 48 l 1
 48 96 l 1
 0 96 l 1
 0 144 l 1
 0 192 l 1
 0 240 l 1
 0 288 l 1
 0 336 l 1
 0 384 l 1
 0 432 l 1
 0 480 l 1
 0 528 l 1
 0 576 l 1
 0 624 l 1
 0 672 l 1
 0 720 l 1
 0 768 l 1
144 432 m 1
 144 384 l 1
 96 384 l 1
 96 336 l 1
 96 288 l 1
 96 240 l 1
 96 192 l 1
 96 144 l 1
 144 144 l 1
 144 96 l 1
 192 96 l 1
 240 96 l 1
 288 96 l 1
 336 96 l 1
 384 96 l 1
 432 96 l 1
 432 144 l 1
 480 144 l 1
 480 192 l 1
 480 240 l 1
 480 288 l 1
 480 336 l 1
 480 384 l 1
 432 384 l 1
 432 432 l 1
 384 432 l 1
 336 432 l 1
 288 432 l 1
 240 432 l 1
 192 432 l 1
 144 432 l 1
EndSplineSet
EndChar

StartChar: c
Encoding: 99 99 67
Width: 672
VWidth: 1024
Flags: HW
LayerCount: 2
Fore
SplineSet
96 528 m 1
 144 528 l 1
 192 528 l 1
 240 528 l 1
 288 528 l 1
 336 528 l 1
 384 528 l 1
 432 528 l 1
 480 528 l 1
 480 480 l 1
 528 480 l 1
 528 432 l 1
 576 432 l 1
 576 384 l 1
 576 336 l 1
 528 336 l 1
 480 336 l 1
 480 384 l 1
 432 384 l 1
 432 432 l 1
 384 432 l 1
 336 432 l 1
 288 432 l 1
 240 432 l 1
 192 432 l 1
 144 432 l 1
 144 384 l 1
 96 384 l 1
 96 336 l 1
 96 288 l 1
 96 240 l 1
 96 192 l 1
 96 144 l 1
 144 144 l 1
 144 96 l 1
 192 96 l 1
 240 96 l 1
 288 96 l 1
 336 96 l 1
 384 96 l 1
 432 96 l 1
 432 144 l 1
 480 144 l 1
 480 192 l 1
 528 192 l 1
 576 192 l 1
 576 144 l 1
 576 96 l 1
 528 96 l 1
 528 48 l 1
 480 48 l 1
 480 0 l 1
 432 0 l 1
 384 0 l 1
 336 0 l 1
 288 0 l 1
 240 0 l 1
 192 0 l 1
 144 0 l 1
 96 0 l 1
 96 48 l 1
 48 48 l 1
 48 96 l 1
 0 96 l 1
 0 144 l 1
 0 192 l 1
 0 240 l 1
 0 288 l 1
 0 336 l 1
 0 384 l 1
 0 432 l 1
 48 432 l 1
 48 480 l 1
 96 480 l 1
 96 528 l 1
EndSplineSet
EndChar

StartChar: d
Encoding: 100 100 68
Width: 672
VWidth: 1024
Flags: HW
LayerCount: 2
Fore
SplineSet
480 768 m 1
 528 768 l 1
 576 768 l 1
 576 720 l 1
 576 672 l 1
 576 624 l 1
 576 576 l 1
 576 528 l 1
 576 480 l 1
 576 432 l 1
 576 384 l 1
 576 336 l 1
 576 288 l 1
 576 240 l 1
 576 192 l 1
 576 144 l 1
 576 96 l 1
 528 96 l 1
 528 48 l 1
 480 48 l 1
 480 0 l 1
 432 0 l 1
 384 0 l 1
 336 0 l 1
 288 0 l 1
 240 0 l 1
 192 0 l 1
 144 0 l 1
 96 0 l 1
 96 48 l 1
 48 48 l 1
 48 96 l 1
 0 96 l 1
 0 144 l 1
 0 192 l 1
 0 240 l 1
 0 288 l 1
 0 336 l 1
 0 384 l 1
 0 432 l 1
 48 432 l 1
 48 480 l 1
 96 480 l 1
 96 528 l 1
 144 528 l 1
 192 528 l 1
 240 528 l 1
 288 528 l 1
 336 528 l 1
 384 528 l 1
 432 528 l 1
 480 528 l 1
 480 576 l 1
 480 624 l 1
 480 672 l 1
 480 720 l 1
 480 768 l 1
144 432 m 1
 144 384 l 1
 96 384 l 1
 96 336 l 1
 96 288 l 1
 96 240 l 1
 96 192 l 1
 96 144 l 1
 144 144 l 1
 144 96 l 1
 192 96 l 1
 240 96 l 1
 288 96 l 1
 336 96 l 1
 384 96 l 1
 432 96 l 1
 432 144 l 1
 480 144 l 1
 480 192 l 1
 480 240 l 1
 480 288 l 1
 480 336 l 1
 480 384 l 1
 432 384 l 1
 432 432 l 1
 384 432 l 1
 336 432 l 1
 288 432 l 1
 240 432 l 1
 192 432 l 1
 144 432 l 1
EndSplineSet
EndChar

StartChar: e
Encoding: 101 101 69
Width: 672
VWidth: 1024
Flags: HW
LayerCount: 2
Fore
SplineSet
48 528 m 1
 96 528 l 1
 144 528 l 1
 192 528 l 1
 240 528 l 1
 288 528 l 1
 336 528 l 1
 384 528 l 1
 432 528 l 1
 480 528 l 1
 528 528 l 1
 528 480 l 1
 576 480 l 1
 576 432 l 1
 576 384 l 1
 576 336 l 1
 576 288 l 1
 528 288 l 1
 528 240 l 1
 480 240 l 1
 432 240 l 1
 384 240 l 1
 336 240 l 1
 288 240 l 1
 240 240 l 1
 192 240 l 1
 144 240 l 1
 96 240 l 1
 96 192 l 1
 96 144 l 1
 96 96 l 1
 144 96 l 1
 192 96 l 1
 240 96 l 1
 288 96 l 1
 336 96 l 1
 384 96 l 1
 432 96 l 1
 480 96 l 1
 528 96 l 1
 576 96 l 1
 576 48 l 1
 528 48 l 1
 528 0 l 1
 480 0 l 1
 432 0 l 1
 384 0 l 1
 336 0 l 1
 288 0 l 1
 240 0 l 1
 192 0 l 1
 144 0 l 1
 96 0 l 1
 48 0 l 1
 48 48 l 1
 0 48 l 1
 0 96 l 1
 0 144 l 1
 0 192 l 1
 0 240 l 1
 0 288 l 1
 0 336 l 1
 0 384 l 1
 0 432 l 1
 0 480 l 1
 48 480 l 1
 48 528 l 1
96 432 m 1
 96 384 l 1
 96 336 l 1
 144 336 l 1
 192 336 l 1
 240 336 l 1
 288 336 l 1
 336 336 l 1
 384 336 l 1
 432 336 l 1
 480 336 l 1
 480 384 l 1
 480 432 l 1
 432 432 l 1
 384 432 l 1
 336 432 l 1
 288 432 l 1
 240 432 l 1
 192 432 l 1
 144 432 l 1
 96 432 l 1
EndSplineSet
EndChar

StartChar: f
Encoding: 102 102 70
Width: 672
VWidth: 1024
Flags: HW
LayerCount: 2
Fore
SplineSet
336 768 m 1
 384 768 l 1
 432 768 l 1
 480 768 l 1
 480 720 l 1
 480 672 l 1
 432 672 l 1
 384 672 l 1
 384 624 l 1
 336 624 l 1
 336 576 l 1
 336 528 l 1
 384 528 l 1
 432 528 l 1
 480 528 l 1
 480 480 l 1
 480 432 l 1
 432 432 l 1
 384 432 l 1
 336 432 l 1
 336 384 l 1
 336 336 l 1
 336 288 l 1
 336 240 l 1
 336 192 l 1
 336 144 l 1
 336 96 l 1
 336 48 l 1
 336 0 l 1
 288 0 l 1
 240 0 l 1
 240 48 l 1
 240 96 l 1
 240 144 l 1
 240 192 l 1
 240 240 l 1
 240 288 l 1
 240 336 l 1
 240 384 l 1
 240 432 l 1
 192 432 l 1
 144 432 l 1
 96 432 l 1
 96 480 l 1
 96 528 l 1
 144 528 l 1
 192 528 l 1
 240 528 l 1
 240 576 l 1
 240 624 l 1
 240 672 l 1
 288 672 l 1
 288 720 l 1
 336 720 l 1
 336 768 l 1
EndSplineSet
EndChar

StartChar: g
Encoding: 103 103 71
Width: 672
VWidth: 1024
Flags: HW
LayerCount: 2
Fore
SplineSet
96 528 m 1
 144 528 l 1
 192 528 l 1
 240 528 l 1
 288 528 l 1
 336 528 l 1
 384 528 l 1
 432 528 l 1
 480 528 l 1
 480 480 l 1
 528 480 l 1
 528 432 l 1
 576 432 l 1
 576 384 l 1
 576 336 l 1
 576 288 l 1
 576 240 l 1
 576 192 l 1
 576 144 l 1
 576 96 l 1
 576 48 l 1
 576 0 l 1
 576 -48 l 1
 576 -96 l 1
 576 -144 l 1
 576 -192 l 1
 528 -192 l 1
 528 -240 l 1
 480 -240 l 1
 432 -240 l 1
 384 -240 l 1
 336 -240 l 1
 288 -240 l 1
 240 -240 l 1
 192 -240 l 1
 144 -240 l 1
 96 -240 l 1
 48 -240 l 1
 48 -192 l 1
 0 -192 l 1
 0 -144 l 1
 0 -96 l 1
 48 -96 l 1
 96 -96 l 1
 96 -144 l 1
 144 -144 l 1
 192 -144 l 1
 240 -144 l 1
 288 -144 l 1
 336 -144 l 1
 384 -144 l 1
 432 -144 l 1
 480 -144 l 1
 480 -96 l 1
 480 -48 l 1
 480 0 l 1
 432 0 l 1
 384 0 l 1
 336 0 l 1
 288 0 l 1
 240 0 l 1
 192 0 l 1
 144 0 l 1
 96 0 l 1
 96 48 l 1
 48 48 l 1
 48 96 l 1
 0 96 l 1
 0 144 l 1
 0 192 l 1
 0 240 l 1
 0 288 l 1
 0 336 l 1
 0 384 l 1
 0 432 l 1
 48 432 l 1
 48 480 l 1
 96 480 l 1
 96 528 l 1
144 432 m 1
 144 384 l 1
 96 384 l 1
 96 336 l 1
 96 288 l 1
 96 240 l 1
 96 192 l 1
 96 144 l 1
 144 144 l 1
 144 96 l 1
 192 96 l 1
 240 96 l 1
 288 96 l 1
 336 96 l 1
 384 96 l 1
 432 96 l 1
 432 144 l 1
 480 144 l 1
 480 192 l 1
 480 240 l 1
 480 288 l 1
 480 336 l 1
 480 384 l 1
 432 384 l 1
 432 432 l 1
 384 432 l 1
 336 432 l 1
 288 432 l 1
 240 432 l 1
 192 432 l 1
 144 432 l 1
EndSplineSet
EndChar

StartChar: h
Encoding: 104 104 72
Width: 672
VWidth: 1024
Flags: HW
LayerCount: 2
Fore
SplineSet
0 768 m 1
 48 768 l 1
 96 768 l 1
 96 720 l 1
 96 672 l 1
 96 624 l 1
 96 576 l 1
 96 528 l 1
 96 480 l 1
 144 480 l 1
 144 528 l 1
 192 528 l 1
 240 528 l 1
 288 528 l 1
 336 528 l 1
 384 528 l 1
 432 528 l 1
 480 528 l 1
 480 480 l 1
 528 480 l 1
 528 432 l 1
 576 432 l 1
 576 384 l 1
 576 336 l 1
 576 288 l 1
 576 240 l 1
 576 192 l 1
 576 144 l 1
 576 96 l 1
 576 48 l 1
 576 0 l 1
 528 0 l 1
 480 0 l 1
 480 48 l 1
 480 96 l 1
 480 144 l 1
 480 192 l 1
 480 240 l 1
 480 288 l 1
 480 336 l 1
 432 336 l 1
 432 384 l 1
 384 384 l 1
 384 432 l 1
 336 432 l 1
 288 432 l 1
 240 432 l 1
 192 432 l 1
 192 384 l 1
 144 384 l 1
 144 336 l 1
 96 336 l 1
 96 288 l 1
 96 240 l 1
 96 192 l 1
 96 144 l 1
 96 96 l 1
 96 48 l 1
 96 0 l 1
 48 0 l 1
 0 0 l 1
 0 48 l 1
 0 96 l 1
 0 144 l 1
 0 192 l 1
 0 240 l 1
 0 288 l 1
 0 336 l 1
 0 384 l 1
 0 432 l 1
 0 480 l 1
 0 528 l 1
 0 576 l 1
 0 624 l 1
 0 672 l 1
 0 720 l 1
 0 768 l 1
EndSplineSet
EndChar

StartChar: i
Encoding: 105 105 73
Width: 192
VWidth: 1024
Flags: HW
LayerCount: 2
Fore
SplineSet
0 672 m 1
 48 672 l 1
 96 672 l 1
 96 624 l 1
 96 576 l 1
 48 576 l 1
 0 576 l 1
 0 624 l 1
 0 672 l 1
0 528 m 1
 48 528 l 1
 96 528 l 1
 96 480 l 1
 96 432 l 1
 96 384 l 1
 96 336 l 1
 96 288 l 1
 96 240 l 1
 96 192 l 1
 96 144 l 1
 96 96 l 1
 96 48 l 1
 96 0 l 1
 48 0 l 1
 0 0 l 1
 0 48 l 1
 0 96 l 1
 0 144 l 1
 0 192 l 1
 0 240 l 1
 0 288 l 1
 0 336 l 1
 0 384 l 1
 0 432 l 1
 0 480 l 1
 0 528 l 1
EndSplineSet
EndChar

StartChar: j
Encoding: 106 106 74
Width: 672
VWidth: 1024
Flags: HW
LayerCount: 2
Fore
SplineSet
480 528 m 1
 528 528 l 1
 576 528 l 1
 576 480 l 1
 576 432 l 1
 528 432 l 1
 480 432 l 1
 480 480 l 1
 480 528 l 1
480 384 m 1
 528 384 l 1
 576 384 l 1
 576 336 l 1
 576 288 l 1
 576 240 l 1
 576 192 l 1
 576 144 l 1
 576 96 l 1
 576 48 l 1
 576 0 l 1
 576 -48 l 1
 576 -96 l 1
 528 -96 l 1
 528 -144 l 1
 480 -144 l 1
 480 -192 l 1
 432 -192 l 1
 432 -240 l 1
 384 -240 l 1
 336 -240 l 1
 288 -240 l 1
 240 -240 l 1
 192 -240 l 1
 144 -240 l 1
 144 -192 l 1
 96 -192 l 1
 96 -144 l 1
 48 -144 l 1
 48 -96 l 1
 0 -96 l 1
 0 -48 l 1
 0 0 l 1
 0 48 l 1
 48 48 l 1
 96 48 l 1
 96 0 l 1
 96 -48 l 1
 144 -48 l 1
 144 -96 l 1
 192 -96 l 1
 192 -144 l 1
 240 -144 l 1
 288 -144 l 1
 336 -144 l 1
 384 -144 l 1
 384 -96 l 1
 432 -96 l 1
 432 -48 l 1
 480 -48 l 1
 480 0 l 1
 480 48 l 1
 480 96 l 1
 480 144 l 1
 480 192 l 1
 480 240 l 1
 480 288 l 1
 480 336 l 1
 480 384 l 1
EndSplineSet
EndChar

StartChar: k
Encoding: 107 107 75
Width: 672
VWidth: 1024
Flags: HW
LayerCount: 2
Fore
SplineSet
0 768 m 1
 48 768 l 1
 96 768 l 1
 96 720 l 1
 96 672 l 1
 96 624 l 1
 96 576 l 1
 96 528 l 1
 96 480 l 1
 96 432 l 1
 96 384 l 1
 96 336 l 1
 96 288 l 1
 144 288 l 1
 144 336 l 1
 192 336 l 1
 192 384 l 1
 240 384 l 1
 240 432 l 1
 288 432 l 1
 288 480 l 1
 336 480 l 1
 336 528 l 1
 384 528 l 1
 432 528 l 1
 432 480 l 1
 432 432 l 1
 384 432 l 1
 384 384 l 1
 336 384 l 1
 336 336 l 1
 288 336 l 1
 288 288 l 1
 240 288 l 1
 240 240 l 1
 240 192 l 1
 288 192 l 1
 288 144 l 1
 336 144 l 1
 336 96 l 1
 384 96 l 1
 384 48 l 1
 432 48 l 1
 432 0 l 1
 384 0 l 1
 336 0 l 1
 288 0 l 1
 288 48 l 1
 240 48 l 1
 240 96 l 1
 192 96 l 1
 192 144 l 1
 144 144 l 1
 144 192 l 1
 96 192 l 1
 96 144 l 1
 96 96 l 1
 96 48 l 1
 96 0 l 1
 48 0 l 1
 0 0 l 1
 0 48 l 1
 0 96 l 1
 0 144 l 1
 0 192 l 1
 0 240 l 1
 0 288 l 1
 0 336 l 1
 0 384 l 1
 0 432 l 1
 0 480 l 1
 0 528 l 1
 0 576 l 1
 0 624 l 1
 0 672 l 1
 0 720 l 1
 0 768 l 1
EndSplineSet
EndChar

StartChar: l
Encoding: 108 108 76
Width: 288
VWidth: 1024
Flags: HW
LayerCount: 2
Fore
SplineSet
0 768 m 1
 48 768 l 1
 96 768 l 1
 96 720 l 1
 96 672 l 1
 96 624 l 1
 96 576 l 1
 96 528 l 1
 96 480 l 1
 96 432 l 1
 96 384 l 1
 96 336 l 1
 96 288 l 1
 96 240 l 1
 96 192 l 1
 96 144 l 1
 144 144 l 1
 144 96 l 1
 192 96 l 1
 192 48 l 1
 192 0 l 1
 144 0 l 1
 96 0 l 1
 48 0 l 1
 48 48 l 1
 0 48 l 1
 0 96 l 1
 0 144 l 1
 0 192 l 1
 0 240 l 1
 0 288 l 1
 0 336 l 1
 0 384 l 1
 0 432 l 1
 0 480 l 1
 0 528 l 1
 0 576 l 1
 0 624 l 1
 0 672 l 1
 0 720 l 1
 0 768 l 1
EndSplineSet
EndChar

StartChar: m
Encoding: 109 109 77
Width: 672
VWidth: 1024
Flags: HW
LayerCount: 2
Fore
SplineSet
0 528 m 1
 48 528 l 1
 96 528 l 1
 144 528 l 1
 192 528 l 1
 240 528 l 1
 240 480 l 1
 288 480 l 1
 336 480 l 1
 336 528 l 1
 384 528 l 1
 432 528 l 1
 480 528 l 1
 528 528 l 1
 528 480 l 1
 576 480 l 1
 576 432 l 1
 576 384 l 1
 576 336 l 1
 576 288 l 1
 576 240 l 1
 576 192 l 1
 576 144 l 1
 576 96 l 1
 576 48 l 1
 576 0 l 1
 528 0 l 1
 480 0 l 1
 480 48 l 1
 480 96 l 1
 480 144 l 1
 480 192 l 1
 480 240 l 1
 480 288 l 1
 480 336 l 1
 480 384 l 1
 432 384 l 1
 432 432 l 1
 384 432 l 1
 384 384 l 1
 336 384 l 1
 336 336 l 1
 336 288 l 1
 336 240 l 1
 336 192 l 1
 336 144 l 1
 336 96 l 1
 336 48 l 1
 336 0 l 1
 288 0 l 1
 240 0 l 1
 240 48 l 1
 240 96 l 1
 240 144 l 1
 240 192 l 1
 240 240 l 1
 240 288 l 1
 240 336 l 1
 240 384 l 1
 192 384 l 1
 192 432 l 1
 144 432 l 1
 144 384 l 1
 96 384 l 1
 96 336 l 1
 96 288 l 1
 96 240 l 1
 96 192 l 1
 96 144 l 1
 96 96 l 1
 96 48 l 1
 96 0 l 1
 48 0 l 1
 0 0 l 1
 0 48 l 1
 0 96 l 1
 0 144 l 1
 0 192 l 1
 0 240 l 1
 0 288 l 1
 0 336 l 1
 0 384 l 1
 0 432 l 1
 0 480 l 1
 0 528 l 1
EndSplineSet
EndChar

StartChar: n
Encoding: 110 110 78
Width: 672
VWidth: 1024
Flags: HW
LayerCount: 2
Fore
SplineSet
0 528 m 1
 48 528 l 1
 96 528 l 1
 96 480 l 1
 144 480 l 1
 144 528 l 1
 192 528 l 1
 240 528 l 1
 288 528 l 1
 336 528 l 1
 384 528 l 1
 432 528 l 1
 480 528 l 1
 480 480 l 1
 528 480 l 1
 528 432 l 1
 576 432 l 1
 576 384 l 1
 576 336 l 1
 576 288 l 1
 576 240 l 1
 576 192 l 1
 576 144 l 1
 576 96 l 1
 576 48 l 1
 576 0 l 1
 528 0 l 1
 480 0 l 1
 480 48 l 1
 480 96 l 1
 480 144 l 1
 480 192 l 1
 480 240 l 1
 480 288 l 1
 480 336 l 1
 432 336 l 1
 432 384 l 1
 384 384 l 1
 384 432 l 1
 336 432 l 1
 288 432 l 1
 240 432 l 1
 192 432 l 1
 192 384 l 1
 144 384 l 1
 144 336 l 1
 96 336 l 1
 96 288 l 1
 96 240 l 1
 96 192 l 1
 96 144 l 1
 96 96 l 1
 96 48 l 1
 96 0 l 1
 48 0 l 1
 0 0 l 1
 0 48 l 1
 0 96 l 1
 0 144 l 1
 0 192 l 1
 0 240 l 1
 0 288 l 1
 0 336 l 1
 0 384 l 1
 0 432 l 1
 0 480 l 1
 0 528 l 1
EndSplineSet
EndChar

StartChar: o
Encoding: 111 111 79
Width: 672
VWidth: 1024
Flags: HW
LayerCount: 2
Fore
SplineSet
96 528 m 1
 144 528 l 1
 192 528 l 1
 240 528 l 1
 288 528 l 1
 336 528 l 1
 384 528 l 1
 432 528 l 1
 480 528 l 1
 480 480 l 1
 528 480 l 1
 528 432 l 1
 576 432 l 1
 576 384 l 1
 576 336 l 1
 576 288 l 1
 576 240 l 1
 576 192 l 1
 576 144 l 1
 576 96 l 1
 528 96 l 1
 528 48 l 1
 480 48 l 1
 480 0 l 1
 432 0 l 1
 384 0 l 1
 336 0 l 1
 288 0 l 1
 240 0 l 1
 192 0 l 1
 144 0 l 1
 96 0 l 1
 96 48 l 1
 48 48 l 1
 48 96 l 1
 0 96 l 1
 0 144 l 1
 0 192 l 1
 0 240 l 1
 0 288 l 1
 0 336 l 1
 0 384 l 1
 0 432 l 1
 48 432 l 1
 48 480 l 1
 96 480 l 1
 96 528 l 1
144 432 m 1
 144 384 l 1
 96 384 l 1
 96 336 l 1
 96 288 l 1
 96 240 l 1
 96 192 l 1
 96 144 l 1
 144 144 l 1
 144 96 l 1
 192 96 l 1
 240 96 l 1
 288 96 l 1
 336 96 l 1
 384 96 l 1
 432 96 l 1
 432 144 l 1
 480 144 l 1
 480 192 l 1
 480 240 l 1
 480 288 l 1
 480 336 l 1
 480 384 l 1
 432 384 l 1
 432 432 l 1
 384 432 l 1
 336 432 l 1
 288 432 l 1
 240 432 l 1
 192 432 l 1
 144 432 l 1
EndSplineSet
EndChar

StartChar: p
Encoding: 112 112 80
Width: 672
VWidth: 1024
Flags: HW
LayerCount: 2
Fore
SplineSet
96 528 m 1
 144 528 l 1
 192 528 l 1
 240 528 l 1
 288 528 l 1
 336 528 l 1
 384 528 l 1
 432 528 l 1
 480 528 l 1
 480 480 l 1
 528 480 l 1
 528 432 l 1
 576 432 l 1
 576 384 l 1
 576 336 l 1
 576 288 l 1
 576 240 l 1
 576 192 l 1
 576 144 l 1
 576 96 l 1
 528 96 l 1
 528 48 l 1
 480 48 l 1
 480 0 l 1
 432 0 l 1
 384 0 l 1
 336 0 l 1
 288 0 l 1
 240 0 l 1
 192 0 l 1
 144 0 l 1
 96 0 l 1
 96 -48 l 1
 96 -96 l 1
 96 -144 l 1
 96 -192 l 1
 96 -240 l 1
 48 -240 l 1
 0 -240 l 1
 0 -192 l 1
 0 -144 l 1
 0 -96 l 1
 0 -48 l 1
 0 0 l 1
 0 48 l 1
 0 96 l 1
 0 144 l 1
 0 192 l 1
 0 240 l 1
 0 288 l 1
 0 336 l 1
 0 384 l 1
 0 432 l 1
 48 432 l 1
 48 480 l 1
 96 480 l 1
 96 528 l 1
144 432 m 1
 144 384 l 1
 96 384 l 1
 96 336 l 1
 96 288 l 1
 96 240 l 1
 96 192 l 1
 96 144 l 1
 144 144 l 1
 144 96 l 1
 192 96 l 1
 240 96 l 1
 288 96 l 1
 336 96 l 1
 384 96 l 1
 432 96 l 1
 432 144 l 1
 480 144 l 1
 480 192 l 1
 480 240 l 1
 480 288 l 1
 480 336 l 1
 480 384 l 1
 432 384 l 1
 432 432 l 1
 384 432 l 1
 336 432 l 1
 288 432 l 1
 240 432 l 1
 192 432 l 1
 144 432 l 1
EndSplineSet
EndChar

StartChar: q
Encoding: 113 113 81
Width: 672
VWidth: 1024
Flags: HW
LayerCount: 2
Fore
SplineSet
96 528 m 1
 144 528 l 1
 192 528 l 1
 240 528 l 1
 288 528 l 1
 336 528 l 1
 384 528 l 1
 432 528 l 1
 480 528 l 1
 480 480 l 1
 528 480 l 1
 528 432 l 1
 576 432 l 1
 576 384 l 1
 576 336 l 1
 576 288 l 1
 576 240 l 1
 576 192 l 1
 576 144 l 1
 576 96 l 1
 576 48 l 1
 576 0 l 1
 576 -48 l 1
 576 -96 l 1
 576 -144 l 1
 576 -192 l 1
 576 -240 l 1
 528 -240 l 1
 480 -240 l 1
 480 -192 l 1
 480 -144 l 1
 480 -96 l 1
 480 -48 l 1
 480 0 l 1
 432 0 l 1
 384 0 l 1
 336 0 l 1
 288 0 l 1
 240 0 l 1
 192 0 l 1
 144 0 l 1
 96 0 l 1
 96 48 l 1
 48 48 l 1
 48 96 l 1
 0 96 l 1
 0 144 l 1
 0 192 l 1
 0 240 l 1
 0 288 l 1
 0 336 l 1
 0 384 l 1
 0 432 l 1
 48 432 l 1
 48 480 l 1
 96 480 l 1
 96 528 l 1
144 432 m 1
 144 384 l 1
 96 384 l 1
 96 336 l 1
 96 288 l 1
 96 240 l 1
 96 192 l 1
 96 144 l 1
 144 144 l 1
 144 96 l 1
 192 96 l 1
 240 96 l 1
 288 96 l 1
 336 96 l 1
 384 96 l 1
 432 96 l 1
 432 144 l 1
 480 144 l 1
 480 192 l 1
 480 240 l 1
 480 288 l 1
 480 336 l 1
 480 384 l 1
 432 384 l 1
 432 432 l 1
 384 432 l 1
 336 432 l 1
 288 432 l 1
 240 432 l 1
 192 432 l 1
 144 432 l 1
EndSplineSet
EndChar

StartChar: r
Encoding: 114 114 82
Width: 672
VWidth: 1024
Flags: HW
LayerCount: 2
Fore
SplineSet
0 528 m 1
 48 528 l 1
 96 528 l 1
 96 480 l 1
 144 480 l 1
 144 528 l 1
 192 528 l 1
 240 528 l 1
 288 528 l 1
 336 528 l 1
 384 528 l 1
 432 528 l 1
 480 528 l 1
 480 480 l 1
 528 480 l 1
 528 432 l 1
 576 432 l 1
 576 384 l 1
 576 336 l 1
 528 336 l 1
 480 336 l 1
 480 384 l 1
 432 384 l 1
 432 432 l 1
 384 432 l 1
 336 432 l 1
 288 432 l 1
 240 432 l 1
 192 432 l 1
 192 384 l 1
 144 384 l 1
 144 336 l 1
 96 336 l 1
 96 288 l 1
 96 240 l 1
 96 192 l 1
 96 144 l 1
 96 96 l 1
 96 48 l 1
 96 0 l 1
 48 0 l 1
 0 0 l 1
 0 48 l 1
 0 96 l 1
 0 144 l 1
 0 192 l 1
 0 240 l 1
 0 288 l 1
 0 336 l 1
 0 384 l 1
 0 432 l 1
 0 480 l 1
 0 528 l 1
EndSplineSet
EndChar

StartChar: s
Encoding: 115 115 83
Width: 672
VWidth: 1024
Flags: HW
LayerCount: 2
Fore
SplineSet
48 528 m 1
 96 528 l 1
 144 528 l 1
 192 528 l 1
 240 528 l 1
 288 528 l 1
 336 528 l 1
 384 528 l 1
 432 528 l 1
 480 528 l 1
 528 528 l 1
 528 480 l 1
 576 480 l 1
 576 432 l 1
 576 384 l 1
 528 384 l 1
 480 384 l 1
 480 432 l 1
 432 432 l 1
 384 432 l 1
 336 432 l 1
 288 432 l 1
 240 432 l 1
 192 432 l 1
 144 432 l 1
 96 432 l 1
 96 384 l 1
 96 336 l 1
 96 288 l 1
 144 288 l 1
 192 288 l 1
 240 288 l 1
 288 288 l 1
 336 288 l 1
 384 288 l 1
 432 288 l 1
 480 288 l 1
 528 288 l 1
 528 240 l 1
 576 240 l 1
 576 192 l 1
 576 144 l 1
 576 96 l 1
 576 48 l 1
 528 48 l 1
 528 0 l 1
 480 0 l 1
 432 0 l 1
 384 0 l 1
 336 0 l 1
 288 0 l 1
 240 0 l 1
 192 0 l 1
 144 0 l 1
 96 0 l 1
 48 0 l 1
 48 48 l 1
 0 48 l 1
 0 96 l 1
 0 144 l 1
 48 144 l 1
 96 144 l 1
 96 96 l 1
 144 96 l 1
 192 96 l 1
 240 96 l 1
 288 96 l 1
 336 96 l 1
 384 96 l 1
 432 96 l 1
 480 96 l 1
 480 144 l 1
 480 192 l 1
 432 192 l 1
 384 192 l 1
 336 192 l 1
 288 192 l 1
 240 192 l 1
 192 192 l 1
 144 192 l 1
 96 192 l 1
 48 192 l 1
 48 240 l 1
 0 240 l 1
 0 288 l 1
 0 336 l 1
 0 384 l 1
 0 432 l 1
 0 480 l 1
 48 480 l 1
 48 528 l 1
EndSplineSet
EndChar

StartChar: t
Encoding: 116 116 84
Width: 672
VWidth: 1024
Flags: HW
LayerCount: 2
Fore
SplineSet
240 768 m 1
 288 768 l 1
 336 768 l 1
 336 720 l 1
 336 672 l 1
 336 624 l 1
 336 576 l 1
 336 528 l 1
 384 528 l 1
 432 528 l 1
 480 528 l 1
 480 480 l 1
 480 432 l 1
 432 432 l 1
 384 432 l 1
 336 432 l 1
 336 384 l 1
 336 336 l 1
 336 288 l 1
 336 240 l 1
 336 192 l 1
 336 144 l 1
 384 144 l 1
 384 96 l 1
 432 96 l 1
 480 96 l 1
 480 48 l 1
 480 0 l 1
 432 0 l 1
 384 0 l 1
 336 0 l 1
 336 48 l 1
 288 48 l 1
 288 96 l 1
 240 96 l 1
 240 144 l 1
 240 192 l 1
 240 240 l 1
 240 288 l 1
 240 336 l 1
 240 384 l 1
 240 432 l 1
 192 432 l 1
 144 432 l 1
 96 432 l 1
 96 480 l 1
 96 528 l 1
 144 528 l 1
 192 528 l 1
 240 528 l 1
 240 576 l 1
 240 624 l 1
 240 672 l 1
 240 720 l 1
 240 768 l 1
EndSplineSet
EndChar

StartChar: u
Encoding: 117 117 85
Width: 672
VWidth: 1024
Flags: HW
LayerCount: 2
Fore
SplineSet
0 528 m 1
 48 528 l 1
 96 528 l 1
 96 480 l 1
 96 432 l 1
 96 384 l 1
 96 336 l 1
 96 288 l 1
 96 240 l 1
 96 192 l 1
 96 144 l 1
 144 144 l 1
 144 96 l 1
 192 96 l 1
 240 96 l 1
 288 96 l 1
 336 96 l 1
 384 96 l 1
 432 96 l 1
 432 144 l 1
 480 144 l 1
 480 192 l 1
 480 240 l 1
 480 288 l 1
 480 336 l 1
 480 384 l 1
 480 432 l 1
 480 480 l 1
 480 528 l 1
 528 528 l 1
 576 528 l 1
 576 480 l 1
 576 432 l 1
 576 384 l 1
 576 336 l 1
 576 288 l 1
 576 240 l 1
 576 192 l 1
 576 144 l 1
 576 96 l 1
 528 96 l 1
 528 48 l 1
 480 48 l 1
 480 0 l 1
 432 0 l 1
 384 0 l 1
 336 0 l 1
 288 0 l 1
 240 0 l 1
 192 0 l 1
 144 0 l 1
 96 0 l 1
 96 48 l 1
 48 48 l 1
 48 96 l 1
 0 96 l 1
 0 144 l 1
 0 192 l 1
 0 240 l 1
 0 288 l 1
 0 336 l 1
 0 384 l 1
 0 432 l 1
 0 480 l 1
 0 528 l 1
EndSplineSet
EndChar

StartChar: v
Encoding: 118 118 86
Width: 672
VWidth: 1024
Flags: HW
LayerCount: 2
Fore
SplineSet
0 528 m 1
 48 528 l 1
 96 528 l 1
 96 480 l 1
 96 432 l 1
 96 384 l 1
 96 336 l 1
 96 288 l 1
 144 288 l 1
 144 240 l 1
 192 240 l 1
 192 192 l 1
 240 192 l 1
 240 144 l 1
 288 144 l 1
 336 144 l 1
 336 192 l 1
 384 192 l 1
 384 240 l 1
 432 240 l 1
 432 288 l 1
 480 288 l 1
 480 336 l 1
 480 384 l 1
 480 432 l 1
 480 480 l 1
 480 528 l 1
 528 528 l 1
 576 528 l 1
 576 480 l 1
 576 432 l 1
 576 384 l 1
 576 336 l 1
 576 288 l 1
 576 240 l 1
 528 240 l 1
 528 192 l 1
 480 192 l 1
 480 144 l 1
 432 144 l 1
 432 96 l 1
 384 96 l 1
 384 48 l 1
 336 48 l 1
 336 0 l 1
 288 0 l 1
 240 0 l 1
 240 48 l 1
 192 48 l 1
 192 96 l 1
 144 96 l 1
 144 144 l 1
 96 144 l 1
 96 192 l 1
 48 192 l 1
 48 240 l 1
 0 240 l 1
 0 288 l 1
 0 336 l 1
 0 384 l 1
 0 432 l 1
 0 480 l 1
 0 528 l 1
EndSplineSet
EndChar

StartChar: w
Encoding: 119 119 87
Width: 672
VWidth: 1024
Flags: HW
LayerCount: 2
Fore
SplineSet
0 528 m 1
 48 528 l 1
 96 528 l 1
 96 480 l 1
 96 432 l 1
 96 384 l 1
 96 336 l 1
 96 288 l 1
 96 240 l 1
 96 192 l 1
 96 144 l 1
 144 144 l 1
 144 96 l 1
 192 96 l 1
 192 144 l 1
 240 144 l 1
 240 192 l 1
 240 240 l 1
 240 288 l 1
 240 336 l 1
 240 384 l 1
 288 384 l 1
 336 384 l 1
 336 336 l 1
 336 288 l 1
 336 240 l 1
 336 192 l 1
 336 144 l 1
 384 144 l 1
 384 96 l 1
 432 96 l 1
 432 144 l 1
 480 144 l 1
 480 192 l 1
 480 240 l 1
 480 288 l 1
 480 336 l 1
 480 384 l 1
 480 432 l 1
 480 480 l 1
 480 528 l 1
 528 528 l 1
 576 528 l 1
 576 480 l 1
 576 432 l 1
 576 384 l 1
 576 336 l 1
 576 288 l 1
 576 240 l 1
 576 192 l 1
 576 144 l 1
 576 96 l 1
 528 96 l 1
 528 48 l 1
 480 48 l 1
 480 0 l 1
 432 0 l 1
 384 0 l 1
 336 0 l 1
 288 0 l 1
 240 0 l 1
 192 0 l 1
 144 0 l 1
 96 0 l 1
 96 48 l 1
 48 48 l 1
 48 96 l 1
 0 96 l 1
 0 144 l 1
 0 192 l 1
 0 240 l 1
 0 288 l 1
 0 336 l 1
 0 384 l 1
 0 432 l 1
 0 480 l 1
 0 528 l 1
EndSplineSet
EndChar

StartChar: x
Encoding: 120 120 88
Width: 672
VWidth: 1024
Flags: HW
LayerCount: 2
Fore
SplineSet
0 528 m 1
 48 528 l 1
 96 528 l 1
 96 480 l 1
 144 480 l 1
 144 432 l 1
 192 432 l 1
 192 384 l 1
 240 384 l 1
 240 336 l 1
 288 336 l 1
 336 336 l 1
 336 384 l 1
 384 384 l 1
 384 432 l 1
 432 432 l 1
 432 480 l 1
 480 480 l 1
 480 528 l 1
 528 528 l 1
 576 528 l 1
 576 480 l 1
 576 432 l 1
 528 432 l 1
 528 384 l 1
 480 384 l 1
 480 336 l 1
 432 336 l 1
 432 288 l 1
 384 288 l 1
 384 240 l 1
 432 240 l 1
 432 192 l 1
 480 192 l 1
 480 144 l 1
 528 144 l 1
 528 96 l 1
 576 96 l 1
 576 48 l 1
 576 0 l 1
 528 0 l 1
 480 0 l 1
 480 48 l 1
 432 48 l 1
 432 96 l 1
 384 96 l 1
 384 144 l 1
 336 144 l 1
 336 192 l 1
 288 192 l 1
 240 192 l 1
 240 144 l 1
 192 144 l 1
 192 96 l 1
 144 96 l 1
 144 48 l 1
 96 48 l 1
 96 0 l 1
 48 0 l 1
 0 0 l 1
 0 48 l 1
 0 96 l 1
 48 96 l 1
 48 144 l 1
 96 144 l 1
 96 192 l 1
 144 192 l 1
 144 240 l 1
 192 240 l 1
 192 288 l 1
 144 288 l 1
 144 336 l 1
 96 336 l 1
 96 384 l 1
 48 384 l 1
 48 432 l 1
 0 432 l 1
 0 480 l 1
 0 528 l 1
EndSplineSet
EndChar

StartChar: y
Encoding: 121 121 89
Width: 672
VWidth: 1024
Flags: HW
LayerCount: 2
Fore
SplineSet
0 528 m 1
 48 528 l 1
 96 528 l 1
 96 480 l 1
 96 432 l 1
 96 384 l 1
 96 336 l 1
 96 288 l 1
 96 240 l 1
 96 192 l 1
 144 192 l 1
 144 144 l 1
 192 144 l 1
 192 96 l 1
 240 96 l 1
 288 96 l 1
 336 96 l 1
 384 96 l 1
 384 144 l 1
 432 144 l 1
 432 192 l 1
 480 192 l 1
 480 240 l 1
 480 288 l 1
 480 336 l 1
 480 384 l 1
 480 432 l 1
 480 480 l 1
 480 528 l 1
 528 528 l 1
 576 528 l 1
 576 480 l 1
 576 432 l 1
 576 384 l 1
 576 336 l 1
 576 288 l 1
 576 240 l 1
 576 192 l 1
 576 144 l 1
 576 96 l 1
 576 48 l 1
 576 0 l 1
 576 -48 l 1
 576 -96 l 1
 576 -144 l 1
 576 -192 l 1
 528 -192 l 1
 528 -240 l 1
 480 -240 l 1
 432 -240 l 1
 384 -240 l 1
 336 -240 l 1
 288 -240 l 1
 240 -240 l 1
 192 -240 l 1
 144 -240 l 1
 96 -240 l 1
 48 -240 l 1
 48 -192 l 1
 0 -192 l 1
 0 -144 l 1
 0 -96 l 1
 48 -96 l 1
 96 -96 l 1
 96 -144 l 1
 144 -144 l 1
 192 -144 l 1
 240 -144 l 1
 288 -144 l 1
 336 -144 l 1
 384 -144 l 1
 432 -144 l 1
 480 -144 l 1
 480 -96 l 1
 480 -48 l 1
 480 0 l 1
 432 0 l 1
 384 0 l 1
 336 0 l 1
 288 0 l 1
 240 0 l 1
 192 0 l 1
 144 0 l 1
 96 0 l 1
 96 48 l 1
 48 48 l 1
 48 96 l 1
 0 96 l 1
 0 144 l 1
 0 192 l 1
 0 240 l 1
 0 288 l 1
 0 336 l 1
 0 384 l 1
 0 432 l 1
 0 480 l 1
 0 528 l 1
EndSplineSet
EndChar

StartChar: z
Encoding: 122 122 90
Width: 672
VWidth: 1024
Flags: HW
LayerCount: 2
Fore
SplineSet
0 528 m 1
 48 528 l 1
 96 528 l 1
 144 528 l 1
 192 528 l 1
 240 528 l 1
 288 528 l 1
 336 528 l 1
 384 528 l 1
 432 528 l 1
 480 528 l 1
 528 528 l 1
 576 528 l 1
 576 480 l 1
 576 432 l 1
 528 432 l 1
 528 384 l 1
 480 384 l 1
 480 336 l 1
 432 336 l 1
 432 288 l 1
 384 288 l 1
 384 240 l 1
 336 240 l 1
 336 192 l 1
 288 192 l 1
 288 144 l 1
 240 144 l 1
 240 96 l 1
 288 96 l 1
 336 96 l 1
 384 96 l 1
 432 96 l 1
 480 96 l 1
 528 96 l 1
 576 96 l 1
 576 48 l 1
 576 0 l 1
 528 0 l 1
 480 0 l 1
 432 0 l 1
 384 0 l 1
 336 0 l 1
 288 0 l 1
 240 0 l 1
 192 0 l 1
 144 0 l 1
 96 0 l 1
 48 0 l 1
 0 0 l 1
 0 48 l 1
 0 96 l 1
 48 96 l 1
 96 96 l 1
 96 144 l 1
 144 144 l 1
 144 192 l 1
 192 192 l 1
 192 240 l 1
 240 240 l 1
 240 288 l 1
 288 288 l 1
 288 336 l 1
 336 336 l 1
 336 384 l 1
 384 384 l 1
 384 432 l 1
 336 432 l 1
 288 432 l 1
 240 432 l 1
 192 432 l 1
 144 432 l 1
 96 432 l 1
 48 432 l 1
 0 432 l 1
 0 480 l 1
 0 528 l 1
EndSplineSet
EndChar

StartChar: bar
Encoding: 124 124 92
Width: 192
VWidth: 1024
Flags: HW
LayerCount: 2
Fore
SplineSet
0 768 m 1
 48 768 l 1
 96 768 l 1
 96 720 l 1
 96 672 l 1
 96 624 l 1
 96 576 l 1
 96 528 l 1
 96 480 l 1
 96 432 l 1
 96 384 l 1
 96 336 l 1
 96 288 l 1
 96 240 l 1
 96 192 l 1
 96 144 l 1
 96 96 l 1
 96 48 l 1
 96 0 l 1
 48 0 l 1
 0 0 l 1
 0 48 l 1
 0 96 l 1
 0 144 l 1
 0 192 l 1
 0 240 l 1
 0 288 l 1
 0 336 l 1
 0 384 l 1
 0 432 l 1
 0 480 l 1
 0 528 l 1
 0 576 l 1
 0 624 l 1
 0 672 l 1
 0 720 l 1
 0 768 l 1
EndSplineSet
EndChar

StartChar: asciitilde
Encoding: 126 126 94
Width: 672
VWidth: 1024
Flags: HW
LayerCount: 2
Fore
SplineSet
96 480 m 1
 144 480 l 1
 192 480 l 1
 240 480 l 1
 288 480 l 1
 288 432 l 1
 336 432 l 1
 336 384 l 1
 384 384 l 1
 432 384 l 1
 432 432 l 1
 480 432 l 1
 480 480 l 1
 528 480 l 1
 576 480 l 1
 576 432 l 1
 576 384 l 1
 528 384 l 1
 528 336 l 1
 480 336 l 1
 480 288 l 1
 432 288 l 1
 384 288 l 1
 336 288 l 1
 288 288 l 1
 288 336 l 1
 240 336 l 1
 240 384 l 1
 192 384 l 1
 144 384 l 1
 144 336 l 1
 96 336 l 1
 96 288 l 1
 48 288 l 1
 0 288 l 1
 0 336 l 1
 0 384 l 1
 48 384 l 1
 48 432 l 1
 96 432 l 1
 96 480 l 1
EndSplineSet
EndChar

